%TF.GenerationSoftware,KiCad,Pcbnew,(7.0.0-0)*%
%TF.CreationDate,2023-03-05T10:41:00+01:00*%
%TF.ProjectId,FancyLight,46616e63-794c-4696-9768-742e6b696361,A*%
%TF.SameCoordinates,Original*%
%TF.FileFunction,AssemblyDrawing,Bot*%
%FSLAX46Y46*%
G04 Gerber Fmt 4.6, Leading zero omitted, Abs format (unit mm)*
G04 Created by KiCad (PCBNEW (7.0.0-0)) date 2023-03-05 10:41:00*
%MOMM*%
%LPD*%
G01*
G04 APERTURE LIST*
%ADD10C,0.200000*%
%ADD11C,0.100000*%
G04 APERTURE END LIST*
D10*
X144627104Y-87136239D02*
X144420049Y-86363499D01*
X144420049Y-86363499D02*
X144236063Y-86412798D01*
X144236063Y-86412798D02*
X144135532Y-86479174D01*
X144135532Y-86479174D02*
X144081657Y-86572488D01*
X144081657Y-86572488D02*
X144064579Y-86655942D01*
X144064579Y-86655942D02*
X144067221Y-86812991D01*
X144067221Y-86812991D02*
X144096800Y-86923382D01*
X144096800Y-86923382D02*
X144173037Y-87060711D01*
X144173037Y-87060711D02*
X144229553Y-87124446D01*
X144229553Y-87124446D02*
X144322867Y-87178320D01*
X144322867Y-87178320D02*
X144443119Y-87185538D01*
X144443119Y-87185538D02*
X144627104Y-87136239D01*
X143449595Y-87451752D02*
X143891161Y-87333435D01*
X143670378Y-87392593D02*
X143463323Y-86619853D01*
X143463323Y-86619853D02*
X143566496Y-86710525D01*
X143566496Y-86710525D02*
X143659810Y-86764400D01*
X143659810Y-86764400D02*
X143743264Y-86781477D01*
X137570475Y-87293904D02*
X137570475Y-86493904D01*
X137570475Y-86493904D02*
X137379999Y-86493904D01*
X137379999Y-86493904D02*
X137265713Y-86532000D01*
X137265713Y-86532000D02*
X137189523Y-86608190D01*
X137189523Y-86608190D02*
X137151428Y-86684380D01*
X137151428Y-86684380D02*
X137113332Y-86836761D01*
X137113332Y-86836761D02*
X137113332Y-86951047D01*
X137113332Y-86951047D02*
X137151428Y-87103428D01*
X137151428Y-87103428D02*
X137189523Y-87179619D01*
X137189523Y-87179619D02*
X137265713Y-87255809D01*
X137265713Y-87255809D02*
X137379999Y-87293904D01*
X137379999Y-87293904D02*
X137570475Y-87293904D01*
X136808571Y-86570095D02*
X136770475Y-86532000D01*
X136770475Y-86532000D02*
X136694285Y-86493904D01*
X136694285Y-86493904D02*
X136503809Y-86493904D01*
X136503809Y-86493904D02*
X136427618Y-86532000D01*
X136427618Y-86532000D02*
X136389523Y-86570095D01*
X136389523Y-86570095D02*
X136351428Y-86646285D01*
X136351428Y-86646285D02*
X136351428Y-86722476D01*
X136351428Y-86722476D02*
X136389523Y-86836761D01*
X136389523Y-86836761D02*
X136846666Y-87293904D01*
X136846666Y-87293904D02*
X136351428Y-87293904D01*
X130474968Y-87431540D02*
X130682023Y-86658799D01*
X130682023Y-86658799D02*
X130498038Y-86609501D01*
X130498038Y-86609501D02*
X130377786Y-86616718D01*
X130377786Y-86616718D02*
X130284472Y-86670593D01*
X130284472Y-86670593D02*
X130227956Y-86734328D01*
X130227956Y-86734328D02*
X130151719Y-86871657D01*
X130151719Y-86871657D02*
X130122140Y-86982048D01*
X130122140Y-86982048D02*
X130119498Y-87139097D01*
X130119498Y-87139097D02*
X130136576Y-87222551D01*
X130136576Y-87222551D02*
X130190451Y-87315865D01*
X130190451Y-87315865D02*
X130290982Y-87382241D01*
X130290982Y-87382241D02*
X130474968Y-87431540D01*
X129982877Y-86471464D02*
X129504514Y-86343287D01*
X129504514Y-86343287D02*
X129683216Y-86706682D01*
X129683216Y-86706682D02*
X129572824Y-86677103D01*
X129572824Y-86677103D02*
X129489370Y-86694181D01*
X129489370Y-86694181D02*
X129442713Y-86721118D01*
X129442713Y-86721118D02*
X129386197Y-86784853D01*
X129386197Y-86784853D02*
X129336898Y-86968839D01*
X129336898Y-86968839D02*
X129353975Y-87052293D01*
X129353975Y-87052293D02*
X129380913Y-87098950D01*
X129380913Y-87098950D02*
X129444647Y-87155466D01*
X129444647Y-87155466D02*
X129665430Y-87214625D01*
X129665430Y-87214625D02*
X129748884Y-87197547D01*
X129748884Y-87197547D02*
X129795541Y-87170610D01*
X144474968Y-80431540D02*
X144682023Y-79658799D01*
X144682023Y-79658799D02*
X144498038Y-79609501D01*
X144498038Y-79609501D02*
X144377786Y-79616718D01*
X144377786Y-79616718D02*
X144284472Y-79670593D01*
X144284472Y-79670593D02*
X144227956Y-79734328D01*
X144227956Y-79734328D02*
X144151719Y-79871657D01*
X144151719Y-79871657D02*
X144122140Y-79982048D01*
X144122140Y-79982048D02*
X144119498Y-80139097D01*
X144119498Y-80139097D02*
X144136576Y-80222551D01*
X144136576Y-80222551D02*
X144190451Y-80315865D01*
X144190451Y-80315865D02*
X144290982Y-80382241D01*
X144290982Y-80382241D02*
X144474968Y-80431540D01*
X143509090Y-79620586D02*
X143371053Y-80135747D01*
X143771954Y-79375508D02*
X143808043Y-79976764D01*
X143808043Y-79976764D02*
X143329680Y-79848587D01*
X137570475Y-80293904D02*
X137570475Y-79493904D01*
X137570475Y-79493904D02*
X137379999Y-79493904D01*
X137379999Y-79493904D02*
X137265713Y-79532000D01*
X137265713Y-79532000D02*
X137189523Y-79608190D01*
X137189523Y-79608190D02*
X137151428Y-79684380D01*
X137151428Y-79684380D02*
X137113332Y-79836761D01*
X137113332Y-79836761D02*
X137113332Y-79951047D01*
X137113332Y-79951047D02*
X137151428Y-80103428D01*
X137151428Y-80103428D02*
X137189523Y-80179619D01*
X137189523Y-80179619D02*
X137265713Y-80255809D01*
X137265713Y-80255809D02*
X137379999Y-80293904D01*
X137379999Y-80293904D02*
X137570475Y-80293904D01*
X136389523Y-79493904D02*
X136770475Y-79493904D01*
X136770475Y-79493904D02*
X136808571Y-79874857D01*
X136808571Y-79874857D02*
X136770475Y-79836761D01*
X136770475Y-79836761D02*
X136694285Y-79798666D01*
X136694285Y-79798666D02*
X136503809Y-79798666D01*
X136503809Y-79798666D02*
X136427618Y-79836761D01*
X136427618Y-79836761D02*
X136389523Y-79874857D01*
X136389523Y-79874857D02*
X136351428Y-79951047D01*
X136351428Y-79951047D02*
X136351428Y-80141523D01*
X136351428Y-80141523D02*
X136389523Y-80217714D01*
X136389523Y-80217714D02*
X136427618Y-80255809D01*
X136427618Y-80255809D02*
X136503809Y-80293904D01*
X136503809Y-80293904D02*
X136694285Y-80293904D01*
X136694285Y-80293904D02*
X136770475Y-80255809D01*
X136770475Y-80255809D02*
X136808571Y-80217714D01*
X130627104Y-80136239D02*
X130420049Y-79363499D01*
X130420049Y-79363499D02*
X130236063Y-79412798D01*
X130236063Y-79412798D02*
X130135532Y-79479174D01*
X130135532Y-79479174D02*
X130081657Y-79572488D01*
X130081657Y-79572488D02*
X130064579Y-79655942D01*
X130064579Y-79655942D02*
X130067221Y-79812991D01*
X130067221Y-79812991D02*
X130096800Y-79923382D01*
X130096800Y-79923382D02*
X130173037Y-80060711D01*
X130173037Y-80060711D02*
X130229553Y-80124446D01*
X130229553Y-80124446D02*
X130322867Y-80178320D01*
X130322867Y-80178320D02*
X130443119Y-80185538D01*
X130443119Y-80185538D02*
X130627104Y-80136239D01*
X129316134Y-79659292D02*
X129463323Y-79619853D01*
X129463323Y-79619853D02*
X129546777Y-79636930D01*
X129546777Y-79636930D02*
X129593434Y-79663868D01*
X129593434Y-79663868D02*
X129696607Y-79754540D01*
X129696607Y-79754540D02*
X129772844Y-79891869D01*
X129772844Y-79891869D02*
X129851722Y-80186246D01*
X129851722Y-80186246D02*
X129834644Y-80269700D01*
X129834644Y-80269700D02*
X129807707Y-80316357D01*
X129807707Y-80316357D02*
X129743972Y-80372874D01*
X129743972Y-80372874D02*
X129596784Y-80412313D01*
X129596784Y-80412313D02*
X129513329Y-80395235D01*
X129513329Y-80395235D02*
X129466673Y-80368298D01*
X129466673Y-80368298D02*
X129410156Y-80304563D01*
X129410156Y-80304563D02*
X129360857Y-80120577D01*
X129360857Y-80120577D02*
X129377935Y-80037123D01*
X129377935Y-80037123D02*
X129404872Y-79990466D01*
X129404872Y-79990466D02*
X129468607Y-79933950D01*
X129468607Y-79933950D02*
X129615795Y-79894511D01*
X129615795Y-79894511D02*
X129699249Y-79911588D01*
X129699249Y-79911588D02*
X129745906Y-79938526D01*
X129745906Y-79938526D02*
X129802423Y-80002260D01*
D11*
X141965570Y-89066663D02*
X141204801Y-86227432D01*
X141965570Y-89066663D02*
G75*
G03*
X141204792Y-86227463I2034430J2066663D01*
G01*
X146500001Y-87000000D02*
G75*
G03*
X146500001Y-87000000I-2500001J0D01*
G01*
X134500000Y-88469694D02*
X134500000Y-85530306D01*
X134500001Y-88469693D02*
G75*
G03*
X134499985Y-85530334I2499999J1469693D01*
G01*
X139500000Y-87000000D02*
G75*
G03*
X139500000Y-87000000I-2500000J0D01*
G01*
X127204801Y-87772568D02*
X127965570Y-84933337D01*
X127204802Y-87772568D02*
G75*
G03*
X127965548Y-84933360I2795198J772568D01*
G01*
X132500001Y-87000000D02*
G75*
G03*
X132500001Y-87000000I-2500001J0D01*
G01*
X141204801Y-80772568D02*
X141965570Y-77933337D01*
X141204802Y-80772568D02*
G75*
G03*
X141965548Y-77933360I2795198J772568D01*
G01*
X146500001Y-80000000D02*
G75*
G03*
X146500001Y-80000000I-2500001J0D01*
G01*
X134500000Y-81469694D02*
X134500000Y-78530306D01*
X134500001Y-81469693D02*
G75*
G03*
X134499985Y-78530334I2499999J1469693D01*
G01*
X139500000Y-80000000D02*
G75*
G03*
X139500000Y-80000000I-2500000J0D01*
G01*
X127965570Y-82066663D02*
X127204801Y-79227432D01*
X127965570Y-82066663D02*
G75*
G03*
X127204792Y-79227463I2034430J2066663D01*
G01*
X132500001Y-80000000D02*
G75*
G03*
X132500001Y-80000000I-2500001J0D01*
G01*
M02*
