%TF.GenerationSoftware,KiCad,Pcbnew,(7.0.0-0)*%
%TF.CreationDate,2023-03-05T10:41:00+01:00*%
%TF.ProjectId,FancyLight,46616e63-794c-4696-9768-742e6b696361,A*%
%TF.SameCoordinates,Original*%
%TF.FileFunction,AssemblyDrawing,Top*%
%FSLAX46Y46*%
G04 Gerber Fmt 4.6, Leading zero omitted, Abs format (unit mm)*
G04 Created by KiCad (PCBNEW (7.0.0-0)) date 2023-03-05 10:41:00*
%MOMM*%
%LPD*%
G01*
G04 APERTURE LIST*
%ADD10C,0.150000*%
%ADD11C,0.080000*%
%ADD12C,0.075000*%
%ADD13C,0.100000*%
G04 APERTURE END LIST*
D10*
X132667380Y-81119047D02*
X132667380Y-81690475D01*
X132667380Y-81404761D02*
X131667380Y-81404761D01*
X131667380Y-81404761D02*
X131810238Y-81499999D01*
X131810238Y-81499999D02*
X131905476Y-81595237D01*
X131905476Y-81595237D02*
X131953095Y-81690475D01*
X131667380Y-80499999D02*
X131667380Y-80404761D01*
X131667380Y-80404761D02*
X131715000Y-80309523D01*
X131715000Y-80309523D02*
X131762619Y-80261904D01*
X131762619Y-80261904D02*
X131857857Y-80214285D01*
X131857857Y-80214285D02*
X132048333Y-80166666D01*
X132048333Y-80166666D02*
X132286428Y-80166666D01*
X132286428Y-80166666D02*
X132476904Y-80214285D01*
X132476904Y-80214285D02*
X132572142Y-80261904D01*
X132572142Y-80261904D02*
X132619761Y-80309523D01*
X132619761Y-80309523D02*
X132667380Y-80404761D01*
X132667380Y-80404761D02*
X132667380Y-80499999D01*
X132667380Y-80499999D02*
X132619761Y-80595237D01*
X132619761Y-80595237D02*
X132572142Y-80642856D01*
X132572142Y-80642856D02*
X132476904Y-80690475D01*
X132476904Y-80690475D02*
X132286428Y-80738094D01*
X132286428Y-80738094D02*
X132048333Y-80738094D01*
X132048333Y-80738094D02*
X131857857Y-80690475D01*
X131857857Y-80690475D02*
X131762619Y-80642856D01*
X131762619Y-80642856D02*
X131715000Y-80595237D01*
X131715000Y-80595237D02*
X131667380Y-80499999D01*
X131667380Y-79547618D02*
X131667380Y-79452380D01*
X131667380Y-79452380D02*
X131715000Y-79357142D01*
X131715000Y-79357142D02*
X131762619Y-79309523D01*
X131762619Y-79309523D02*
X131857857Y-79261904D01*
X131857857Y-79261904D02*
X132048333Y-79214285D01*
X132048333Y-79214285D02*
X132286428Y-79214285D01*
X132286428Y-79214285D02*
X132476904Y-79261904D01*
X132476904Y-79261904D02*
X132572142Y-79309523D01*
X132572142Y-79309523D02*
X132619761Y-79357142D01*
X132619761Y-79357142D02*
X132667380Y-79452380D01*
X132667380Y-79452380D02*
X132667380Y-79547618D01*
X132667380Y-79547618D02*
X132619761Y-79642856D01*
X132619761Y-79642856D02*
X132572142Y-79690475D01*
X132572142Y-79690475D02*
X132476904Y-79738094D01*
X132476904Y-79738094D02*
X132286428Y-79785713D01*
X132286428Y-79785713D02*
X132048333Y-79785713D01*
X132048333Y-79785713D02*
X131857857Y-79738094D01*
X131857857Y-79738094D02*
X131762619Y-79690475D01*
X131762619Y-79690475D02*
X131715000Y-79642856D01*
X131715000Y-79642856D02*
X131667380Y-79547618D01*
X132000714Y-78785713D02*
X132667380Y-78785713D01*
X132095952Y-78785713D02*
X132048333Y-78738094D01*
X132048333Y-78738094D02*
X132000714Y-78642856D01*
X132000714Y-78642856D02*
X132000714Y-78499999D01*
X132000714Y-78499999D02*
X132048333Y-78404761D01*
X132048333Y-78404761D02*
X132143571Y-78357142D01*
X132143571Y-78357142D02*
X132667380Y-78357142D01*
D11*
X133636071Y-80083333D02*
X133659880Y-80107142D01*
X133659880Y-80107142D02*
X133683690Y-80178571D01*
X133683690Y-80178571D02*
X133683690Y-80226190D01*
X133683690Y-80226190D02*
X133659880Y-80297618D01*
X133659880Y-80297618D02*
X133612261Y-80345237D01*
X133612261Y-80345237D02*
X133564642Y-80369047D01*
X133564642Y-80369047D02*
X133469404Y-80392856D01*
X133469404Y-80392856D02*
X133397976Y-80392856D01*
X133397976Y-80392856D02*
X133302738Y-80369047D01*
X133302738Y-80369047D02*
X133255119Y-80345237D01*
X133255119Y-80345237D02*
X133207500Y-80297618D01*
X133207500Y-80297618D02*
X133183690Y-80226190D01*
X133183690Y-80226190D02*
X133183690Y-80178571D01*
X133183690Y-80178571D02*
X133207500Y-80107142D01*
X133207500Y-80107142D02*
X133231309Y-80083333D01*
X133683690Y-79607142D02*
X133683690Y-79892856D01*
X133683690Y-79749999D02*
X133183690Y-79749999D01*
X133183690Y-79749999D02*
X133255119Y-79797618D01*
X133255119Y-79797618D02*
X133302738Y-79845237D01*
X133302738Y-79845237D02*
X133326547Y-79892856D01*
D10*
X146019761Y-87499999D02*
X146067380Y-87357142D01*
X146067380Y-87357142D02*
X146067380Y-87119047D01*
X146067380Y-87119047D02*
X146019761Y-87023809D01*
X146019761Y-87023809D02*
X145972142Y-86976190D01*
X145972142Y-86976190D02*
X145876904Y-86928571D01*
X145876904Y-86928571D02*
X145781666Y-86928571D01*
X145781666Y-86928571D02*
X145686428Y-86976190D01*
X145686428Y-86976190D02*
X145638809Y-87023809D01*
X145638809Y-87023809D02*
X145591190Y-87119047D01*
X145591190Y-87119047D02*
X145543571Y-87309523D01*
X145543571Y-87309523D02*
X145495952Y-87404761D01*
X145495952Y-87404761D02*
X145448333Y-87452380D01*
X145448333Y-87452380D02*
X145353095Y-87499999D01*
X145353095Y-87499999D02*
X145257857Y-87499999D01*
X145257857Y-87499999D02*
X145162619Y-87452380D01*
X145162619Y-87452380D02*
X145115000Y-87404761D01*
X145115000Y-87404761D02*
X145067380Y-87309523D01*
X145067380Y-87309523D02*
X145067380Y-87071428D01*
X145067380Y-87071428D02*
X145115000Y-86928571D01*
X146067380Y-86499999D02*
X145067380Y-86499999D01*
X145067380Y-86499999D02*
X145781666Y-86166666D01*
X145781666Y-86166666D02*
X145067380Y-85833333D01*
X145067380Y-85833333D02*
X146067380Y-85833333D01*
X145781666Y-85404761D02*
X145781666Y-84928571D01*
X146067380Y-85499999D02*
X145067380Y-85166666D01*
X145067380Y-85166666D02*
X146067380Y-84833333D01*
X145067380Y-84071428D02*
X145067380Y-84261904D01*
X145067380Y-84261904D02*
X145115000Y-84357142D01*
X145115000Y-84357142D02*
X145162619Y-84404761D01*
X145162619Y-84404761D02*
X145305476Y-84499999D01*
X145305476Y-84499999D02*
X145495952Y-84547618D01*
X145495952Y-84547618D02*
X145876904Y-84547618D01*
X145876904Y-84547618D02*
X145972142Y-84499999D01*
X145972142Y-84499999D02*
X146019761Y-84452380D01*
X146019761Y-84452380D02*
X146067380Y-84357142D01*
X146067380Y-84357142D02*
X146067380Y-84166666D01*
X146067380Y-84166666D02*
X146019761Y-84071428D01*
X146019761Y-84071428D02*
X145972142Y-84023809D01*
X145972142Y-84023809D02*
X145876904Y-83976190D01*
X145876904Y-83976190D02*
X145638809Y-83976190D01*
X145638809Y-83976190D02*
X145543571Y-84023809D01*
X145543571Y-84023809D02*
X145495952Y-84071428D01*
X145495952Y-84071428D02*
X145448333Y-84166666D01*
X145448333Y-84166666D02*
X145448333Y-84357142D01*
X145448333Y-84357142D02*
X145495952Y-84452380D01*
X145495952Y-84452380D02*
X145543571Y-84499999D01*
X145543571Y-84499999D02*
X145638809Y-84547618D01*
X145543571Y-83214285D02*
X145543571Y-83547618D01*
X146067380Y-83547618D02*
X145067380Y-83547618D01*
X145067380Y-83547618D02*
X145067380Y-83071428D01*
X146067380Y-82166666D02*
X146067380Y-82738094D01*
X146067380Y-82452380D02*
X145067380Y-82452380D01*
X145067380Y-82452380D02*
X145210238Y-82547618D01*
X145210238Y-82547618D02*
X145305476Y-82642856D01*
X145305476Y-82642856D02*
X145353095Y-82738094D01*
X145067380Y-81261904D02*
X145067380Y-81738094D01*
X145067380Y-81738094D02*
X145543571Y-81785713D01*
X145543571Y-81785713D02*
X145495952Y-81738094D01*
X145495952Y-81738094D02*
X145448333Y-81642856D01*
X145448333Y-81642856D02*
X145448333Y-81404761D01*
X145448333Y-81404761D02*
X145495952Y-81309523D01*
X145495952Y-81309523D02*
X145543571Y-81261904D01*
X145543571Y-81261904D02*
X145638809Y-81214285D01*
X145638809Y-81214285D02*
X145876904Y-81214285D01*
X145876904Y-81214285D02*
X145972142Y-81261904D01*
X145972142Y-81261904D02*
X146019761Y-81309523D01*
X146019761Y-81309523D02*
X146067380Y-81404761D01*
X146067380Y-81404761D02*
X146067380Y-81642856D01*
X146067380Y-81642856D02*
X146019761Y-81738094D01*
X146019761Y-81738094D02*
X145972142Y-81785713D01*
X145781666Y-80833332D02*
X145781666Y-80357142D01*
X146067380Y-80928570D02*
X145067380Y-80595237D01*
X145067380Y-80595237D02*
X146067380Y-80261904D01*
X145591190Y-79738094D02*
X146067380Y-79738094D01*
X145067380Y-80071427D02*
X145591190Y-79738094D01*
X145591190Y-79738094D02*
X145067380Y-79404761D01*
X144667380Y-81738094D02*
X143667380Y-81738094D01*
X143667380Y-81738094D02*
X143667380Y-81499999D01*
X143667380Y-81499999D02*
X143715000Y-81357142D01*
X143715000Y-81357142D02*
X143810238Y-81261904D01*
X143810238Y-81261904D02*
X143905476Y-81214285D01*
X143905476Y-81214285D02*
X144095952Y-81166666D01*
X144095952Y-81166666D02*
X144238809Y-81166666D01*
X144238809Y-81166666D02*
X144429285Y-81214285D01*
X144429285Y-81214285D02*
X144524523Y-81261904D01*
X144524523Y-81261904D02*
X144619761Y-81357142D01*
X144619761Y-81357142D02*
X144667380Y-81499999D01*
X144667380Y-81499999D02*
X144667380Y-81738094D01*
X143667380Y-80833332D02*
X143667380Y-80166666D01*
X143667380Y-80166666D02*
X144667380Y-80595237D01*
X129043571Y-85957142D02*
X129091190Y-85814285D01*
X129091190Y-85814285D02*
X129138809Y-85766666D01*
X129138809Y-85766666D02*
X129234047Y-85719047D01*
X129234047Y-85719047D02*
X129376904Y-85719047D01*
X129376904Y-85719047D02*
X129472142Y-85766666D01*
X129472142Y-85766666D02*
X129519761Y-85814285D01*
X129519761Y-85814285D02*
X129567380Y-85909523D01*
X129567380Y-85909523D02*
X129567380Y-86290475D01*
X129567380Y-86290475D02*
X128567380Y-86290475D01*
X128567380Y-86290475D02*
X128567380Y-85957142D01*
X128567380Y-85957142D02*
X128615000Y-85861904D01*
X128615000Y-85861904D02*
X128662619Y-85814285D01*
X128662619Y-85814285D02*
X128757857Y-85766666D01*
X128757857Y-85766666D02*
X128853095Y-85766666D01*
X128853095Y-85766666D02*
X128948333Y-85814285D01*
X128948333Y-85814285D02*
X128995952Y-85861904D01*
X128995952Y-85861904D02*
X129043571Y-85957142D01*
X129043571Y-85957142D02*
X129043571Y-86290475D01*
X129472142Y-84719047D02*
X129519761Y-84766666D01*
X129519761Y-84766666D02*
X129567380Y-84909523D01*
X129567380Y-84909523D02*
X129567380Y-85004761D01*
X129567380Y-85004761D02*
X129519761Y-85147618D01*
X129519761Y-85147618D02*
X129424523Y-85242856D01*
X129424523Y-85242856D02*
X129329285Y-85290475D01*
X129329285Y-85290475D02*
X129138809Y-85338094D01*
X129138809Y-85338094D02*
X128995952Y-85338094D01*
X128995952Y-85338094D02*
X128805476Y-85290475D01*
X128805476Y-85290475D02*
X128710238Y-85242856D01*
X128710238Y-85242856D02*
X128615000Y-85147618D01*
X128615000Y-85147618D02*
X128567380Y-85004761D01*
X128567380Y-85004761D02*
X128567380Y-84909523D01*
X128567380Y-84909523D02*
X128615000Y-84766666D01*
X128615000Y-84766666D02*
X128662619Y-84719047D01*
X128995952Y-84147618D02*
X128948333Y-84242856D01*
X128948333Y-84242856D02*
X128900714Y-84290475D01*
X128900714Y-84290475D02*
X128805476Y-84338094D01*
X128805476Y-84338094D02*
X128757857Y-84338094D01*
X128757857Y-84338094D02*
X128662619Y-84290475D01*
X128662619Y-84290475D02*
X128615000Y-84242856D01*
X128615000Y-84242856D02*
X128567380Y-84147618D01*
X128567380Y-84147618D02*
X128567380Y-83957142D01*
X128567380Y-83957142D02*
X128615000Y-83861904D01*
X128615000Y-83861904D02*
X128662619Y-83814285D01*
X128662619Y-83814285D02*
X128757857Y-83766666D01*
X128757857Y-83766666D02*
X128805476Y-83766666D01*
X128805476Y-83766666D02*
X128900714Y-83814285D01*
X128900714Y-83814285D02*
X128948333Y-83861904D01*
X128948333Y-83861904D02*
X128995952Y-83957142D01*
X128995952Y-83957142D02*
X128995952Y-84147618D01*
X128995952Y-84147618D02*
X129043571Y-84242856D01*
X129043571Y-84242856D02*
X129091190Y-84290475D01*
X129091190Y-84290475D02*
X129186428Y-84338094D01*
X129186428Y-84338094D02*
X129376904Y-84338094D01*
X129376904Y-84338094D02*
X129472142Y-84290475D01*
X129472142Y-84290475D02*
X129519761Y-84242856D01*
X129519761Y-84242856D02*
X129567380Y-84147618D01*
X129567380Y-84147618D02*
X129567380Y-83957142D01*
X129567380Y-83957142D02*
X129519761Y-83861904D01*
X129519761Y-83861904D02*
X129472142Y-83814285D01*
X129472142Y-83814285D02*
X129376904Y-83766666D01*
X129376904Y-83766666D02*
X129186428Y-83766666D01*
X129186428Y-83766666D02*
X129091190Y-83814285D01*
X129091190Y-83814285D02*
X129043571Y-83861904D01*
X129043571Y-83861904D02*
X128995952Y-83957142D01*
X128900714Y-82909523D02*
X129567380Y-82909523D01*
X128519761Y-83147618D02*
X129234047Y-83385713D01*
X129234047Y-83385713D02*
X129234047Y-82766666D01*
X128567380Y-82480951D02*
X128567380Y-81814285D01*
X128567380Y-81814285D02*
X129567380Y-82242856D01*
X129472142Y-80861904D02*
X129519761Y-80909523D01*
X129519761Y-80909523D02*
X129567380Y-81052380D01*
X129567380Y-81052380D02*
X129567380Y-81147618D01*
X129567380Y-81147618D02*
X129519761Y-81290475D01*
X129519761Y-81290475D02*
X129424523Y-81385713D01*
X129424523Y-81385713D02*
X129329285Y-81433332D01*
X129329285Y-81433332D02*
X129138809Y-81480951D01*
X129138809Y-81480951D02*
X128995952Y-81480951D01*
X128995952Y-81480951D02*
X128805476Y-81433332D01*
X128805476Y-81433332D02*
X128710238Y-81385713D01*
X128710238Y-81385713D02*
X128615000Y-81290475D01*
X128615000Y-81290475D02*
X128567380Y-81147618D01*
X128567380Y-81147618D02*
X128567380Y-81052380D01*
X128567380Y-81052380D02*
X128615000Y-80909523D01*
X128615000Y-80909523D02*
X128662619Y-80861904D01*
D12*
X130731309Y-83547619D02*
X130707500Y-83595238D01*
X130707500Y-83595238D02*
X130659880Y-83642857D01*
X130659880Y-83642857D02*
X130588452Y-83714285D01*
X130588452Y-83714285D02*
X130564642Y-83761904D01*
X130564642Y-83761904D02*
X130564642Y-83809523D01*
X130683690Y-83785714D02*
X130659880Y-83833333D01*
X130659880Y-83833333D02*
X130612261Y-83880952D01*
X130612261Y-83880952D02*
X130517023Y-83904761D01*
X130517023Y-83904761D02*
X130350357Y-83904761D01*
X130350357Y-83904761D02*
X130255119Y-83880952D01*
X130255119Y-83880952D02*
X130207500Y-83833333D01*
X130207500Y-83833333D02*
X130183690Y-83785714D01*
X130183690Y-83785714D02*
X130183690Y-83690476D01*
X130183690Y-83690476D02*
X130207500Y-83642857D01*
X130207500Y-83642857D02*
X130255119Y-83595238D01*
X130255119Y-83595238D02*
X130350357Y-83571428D01*
X130350357Y-83571428D02*
X130517023Y-83571428D01*
X130517023Y-83571428D02*
X130612261Y-83595238D01*
X130612261Y-83595238D02*
X130659880Y-83642857D01*
X130659880Y-83642857D02*
X130683690Y-83690476D01*
X130683690Y-83690476D02*
X130683690Y-83785714D01*
X130683690Y-83095237D02*
X130683690Y-83380951D01*
X130683690Y-83238094D02*
X130183690Y-83238094D01*
X130183690Y-83238094D02*
X130255119Y-83285713D01*
X130255119Y-83285713D02*
X130302738Y-83333332D01*
X130302738Y-83333332D02*
X130326547Y-83380951D01*
D10*
X141367380Y-87809523D02*
X141367380Y-87190476D01*
X141367380Y-87190476D02*
X141748333Y-87523809D01*
X141748333Y-87523809D02*
X141748333Y-87380952D01*
X141748333Y-87380952D02*
X141795952Y-87285714D01*
X141795952Y-87285714D02*
X141843571Y-87238095D01*
X141843571Y-87238095D02*
X141938809Y-87190476D01*
X141938809Y-87190476D02*
X142176904Y-87190476D01*
X142176904Y-87190476D02*
X142272142Y-87238095D01*
X142272142Y-87238095D02*
X142319761Y-87285714D01*
X142319761Y-87285714D02*
X142367380Y-87380952D01*
X142367380Y-87380952D02*
X142367380Y-87666666D01*
X142367380Y-87666666D02*
X142319761Y-87761904D01*
X142319761Y-87761904D02*
X142272142Y-87809523D01*
X141367380Y-86333333D02*
X141367380Y-86523809D01*
X141367380Y-86523809D02*
X141415000Y-86619047D01*
X141415000Y-86619047D02*
X141462619Y-86666666D01*
X141462619Y-86666666D02*
X141605476Y-86761904D01*
X141605476Y-86761904D02*
X141795952Y-86809523D01*
X141795952Y-86809523D02*
X142176904Y-86809523D01*
X142176904Y-86809523D02*
X142272142Y-86761904D01*
X142272142Y-86761904D02*
X142319761Y-86714285D01*
X142319761Y-86714285D02*
X142367380Y-86619047D01*
X142367380Y-86619047D02*
X142367380Y-86428571D01*
X142367380Y-86428571D02*
X142319761Y-86333333D01*
X142319761Y-86333333D02*
X142272142Y-86285714D01*
X142272142Y-86285714D02*
X142176904Y-86238095D01*
X142176904Y-86238095D02*
X141938809Y-86238095D01*
X141938809Y-86238095D02*
X141843571Y-86285714D01*
X141843571Y-86285714D02*
X141795952Y-86333333D01*
X141795952Y-86333333D02*
X141748333Y-86428571D01*
X141748333Y-86428571D02*
X141748333Y-86619047D01*
X141748333Y-86619047D02*
X141795952Y-86714285D01*
X141795952Y-86714285D02*
X141843571Y-86761904D01*
X141843571Y-86761904D02*
X141938809Y-86809523D01*
D11*
X140683690Y-87083333D02*
X140445595Y-87249999D01*
X140683690Y-87369047D02*
X140183690Y-87369047D01*
X140183690Y-87369047D02*
X140183690Y-87178571D01*
X140183690Y-87178571D02*
X140207500Y-87130952D01*
X140207500Y-87130952D02*
X140231309Y-87107142D01*
X140231309Y-87107142D02*
X140278928Y-87083333D01*
X140278928Y-87083333D02*
X140350357Y-87083333D01*
X140350357Y-87083333D02*
X140397976Y-87107142D01*
X140397976Y-87107142D02*
X140421785Y-87130952D01*
X140421785Y-87130952D02*
X140445595Y-87178571D01*
X140445595Y-87178571D02*
X140445595Y-87369047D01*
X140683690Y-86607142D02*
X140683690Y-86892856D01*
X140683690Y-86749999D02*
X140183690Y-86749999D01*
X140183690Y-86749999D02*
X140255119Y-86797618D01*
X140255119Y-86797618D02*
X140302738Y-86845237D01*
X140302738Y-86845237D02*
X140326547Y-86892856D01*
D10*
X141367380Y-80709523D02*
X141367380Y-80090476D01*
X141367380Y-80090476D02*
X141748333Y-80423809D01*
X141748333Y-80423809D02*
X141748333Y-80280952D01*
X141748333Y-80280952D02*
X141795952Y-80185714D01*
X141795952Y-80185714D02*
X141843571Y-80138095D01*
X141843571Y-80138095D02*
X141938809Y-80090476D01*
X141938809Y-80090476D02*
X142176904Y-80090476D01*
X142176904Y-80090476D02*
X142272142Y-80138095D01*
X142272142Y-80138095D02*
X142319761Y-80185714D01*
X142319761Y-80185714D02*
X142367380Y-80280952D01*
X142367380Y-80280952D02*
X142367380Y-80566666D01*
X142367380Y-80566666D02*
X142319761Y-80661904D01*
X142319761Y-80661904D02*
X142272142Y-80709523D01*
X141367380Y-79233333D02*
X141367380Y-79423809D01*
X141367380Y-79423809D02*
X141415000Y-79519047D01*
X141415000Y-79519047D02*
X141462619Y-79566666D01*
X141462619Y-79566666D02*
X141605476Y-79661904D01*
X141605476Y-79661904D02*
X141795952Y-79709523D01*
X141795952Y-79709523D02*
X142176904Y-79709523D01*
X142176904Y-79709523D02*
X142272142Y-79661904D01*
X142272142Y-79661904D02*
X142319761Y-79614285D01*
X142319761Y-79614285D02*
X142367380Y-79519047D01*
X142367380Y-79519047D02*
X142367380Y-79328571D01*
X142367380Y-79328571D02*
X142319761Y-79233333D01*
X142319761Y-79233333D02*
X142272142Y-79185714D01*
X142272142Y-79185714D02*
X142176904Y-79138095D01*
X142176904Y-79138095D02*
X141938809Y-79138095D01*
X141938809Y-79138095D02*
X141843571Y-79185714D01*
X141843571Y-79185714D02*
X141795952Y-79233333D01*
X141795952Y-79233333D02*
X141748333Y-79328571D01*
X141748333Y-79328571D02*
X141748333Y-79519047D01*
X141748333Y-79519047D02*
X141795952Y-79614285D01*
X141795952Y-79614285D02*
X141843571Y-79661904D01*
X141843571Y-79661904D02*
X141938809Y-79709523D01*
D11*
X140683690Y-80083333D02*
X140445595Y-80249999D01*
X140683690Y-80369047D02*
X140183690Y-80369047D01*
X140183690Y-80369047D02*
X140183690Y-80178571D01*
X140183690Y-80178571D02*
X140207500Y-80130952D01*
X140207500Y-80130952D02*
X140231309Y-80107142D01*
X140231309Y-80107142D02*
X140278928Y-80083333D01*
X140278928Y-80083333D02*
X140350357Y-80083333D01*
X140350357Y-80083333D02*
X140397976Y-80107142D01*
X140397976Y-80107142D02*
X140421785Y-80130952D01*
X140421785Y-80130952D02*
X140445595Y-80178571D01*
X140445595Y-80178571D02*
X140445595Y-80369047D01*
X140350357Y-79654761D02*
X140683690Y-79654761D01*
X140159880Y-79773809D02*
X140517023Y-79892856D01*
X140517023Y-79892856D02*
X140517023Y-79583333D01*
D10*
X132667380Y-83690476D02*
X132667380Y-84261904D01*
X132667380Y-83976190D02*
X131667380Y-83976190D01*
X131667380Y-83976190D02*
X131810238Y-84071428D01*
X131810238Y-84071428D02*
X131905476Y-84166666D01*
X131905476Y-84166666D02*
X131953095Y-84261904D01*
X131667380Y-82785714D02*
X131667380Y-83261904D01*
X131667380Y-83261904D02*
X132143571Y-83309523D01*
X132143571Y-83309523D02*
X132095952Y-83261904D01*
X132095952Y-83261904D02*
X132048333Y-83166666D01*
X132048333Y-83166666D02*
X132048333Y-82928571D01*
X132048333Y-82928571D02*
X132095952Y-82833333D01*
X132095952Y-82833333D02*
X132143571Y-82785714D01*
X132143571Y-82785714D02*
X132238809Y-82738095D01*
X132238809Y-82738095D02*
X132476904Y-82738095D01*
X132476904Y-82738095D02*
X132572142Y-82785714D01*
X132572142Y-82785714D02*
X132619761Y-82833333D01*
X132619761Y-82833333D02*
X132667380Y-82928571D01*
X132667380Y-82928571D02*
X132667380Y-83166666D01*
X132667380Y-83166666D02*
X132619761Y-83261904D01*
X132619761Y-83261904D02*
X132572142Y-83309523D01*
D11*
X133683690Y-83583333D02*
X133445595Y-83749999D01*
X133683690Y-83869047D02*
X133183690Y-83869047D01*
X133183690Y-83869047D02*
X133183690Y-83678571D01*
X133183690Y-83678571D02*
X133207500Y-83630952D01*
X133207500Y-83630952D02*
X133231309Y-83607142D01*
X133231309Y-83607142D02*
X133278928Y-83583333D01*
X133278928Y-83583333D02*
X133350357Y-83583333D01*
X133350357Y-83583333D02*
X133397976Y-83607142D01*
X133397976Y-83607142D02*
X133421785Y-83630952D01*
X133421785Y-83630952D02*
X133445595Y-83678571D01*
X133445595Y-83678571D02*
X133445595Y-83869047D01*
X133183690Y-83416666D02*
X133183690Y-83107142D01*
X133183690Y-83107142D02*
X133374166Y-83273809D01*
X133374166Y-83273809D02*
X133374166Y-83202380D01*
X133374166Y-83202380D02*
X133397976Y-83154761D01*
X133397976Y-83154761D02*
X133421785Y-83130952D01*
X133421785Y-83130952D02*
X133469404Y-83107142D01*
X133469404Y-83107142D02*
X133588452Y-83107142D01*
X133588452Y-83107142D02*
X133636071Y-83130952D01*
X133636071Y-83130952D02*
X133659880Y-83154761D01*
X133659880Y-83154761D02*
X133683690Y-83202380D01*
X133683690Y-83202380D02*
X133683690Y-83345237D01*
X133683690Y-83345237D02*
X133659880Y-83392856D01*
X133659880Y-83392856D02*
X133636071Y-83416666D01*
D10*
X132667380Y-87595238D02*
X132667380Y-88166666D01*
X132667380Y-87880952D02*
X131667380Y-87880952D01*
X131667380Y-87880952D02*
X131810238Y-87976190D01*
X131810238Y-87976190D02*
X131905476Y-88071428D01*
X131905476Y-88071428D02*
X131953095Y-88166666D01*
X131667380Y-86976190D02*
X131667380Y-86880952D01*
X131667380Y-86880952D02*
X131715000Y-86785714D01*
X131715000Y-86785714D02*
X131762619Y-86738095D01*
X131762619Y-86738095D02*
X131857857Y-86690476D01*
X131857857Y-86690476D02*
X132048333Y-86642857D01*
X132048333Y-86642857D02*
X132286428Y-86642857D01*
X132286428Y-86642857D02*
X132476904Y-86690476D01*
X132476904Y-86690476D02*
X132572142Y-86738095D01*
X132572142Y-86738095D02*
X132619761Y-86785714D01*
X132619761Y-86785714D02*
X132667380Y-86880952D01*
X132667380Y-86880952D02*
X132667380Y-86976190D01*
X132667380Y-86976190D02*
X132619761Y-87071428D01*
X132619761Y-87071428D02*
X132572142Y-87119047D01*
X132572142Y-87119047D02*
X132476904Y-87166666D01*
X132476904Y-87166666D02*
X132286428Y-87214285D01*
X132286428Y-87214285D02*
X132048333Y-87214285D01*
X132048333Y-87214285D02*
X131857857Y-87166666D01*
X131857857Y-87166666D02*
X131762619Y-87119047D01*
X131762619Y-87119047D02*
X131715000Y-87071428D01*
X131715000Y-87071428D02*
X131667380Y-86976190D01*
X132667380Y-86214285D02*
X131667380Y-86214285D01*
X132286428Y-86119047D02*
X132667380Y-85833333D01*
X132000714Y-85833333D02*
X132381666Y-86214285D01*
D11*
X133683690Y-87083333D02*
X133445595Y-87249999D01*
X133683690Y-87369047D02*
X133183690Y-87369047D01*
X133183690Y-87369047D02*
X133183690Y-87178571D01*
X133183690Y-87178571D02*
X133207500Y-87130952D01*
X133207500Y-87130952D02*
X133231309Y-87107142D01*
X133231309Y-87107142D02*
X133278928Y-87083333D01*
X133278928Y-87083333D02*
X133350357Y-87083333D01*
X133350357Y-87083333D02*
X133397976Y-87107142D01*
X133397976Y-87107142D02*
X133421785Y-87130952D01*
X133421785Y-87130952D02*
X133445595Y-87178571D01*
X133445595Y-87178571D02*
X133445595Y-87369047D01*
X133231309Y-86892856D02*
X133207500Y-86869047D01*
X133207500Y-86869047D02*
X133183690Y-86821428D01*
X133183690Y-86821428D02*
X133183690Y-86702380D01*
X133183690Y-86702380D02*
X133207500Y-86654761D01*
X133207500Y-86654761D02*
X133231309Y-86630952D01*
X133231309Y-86630952D02*
X133278928Y-86607142D01*
X133278928Y-86607142D02*
X133326547Y-86607142D01*
X133326547Y-86607142D02*
X133397976Y-86630952D01*
X133397976Y-86630952D02*
X133683690Y-86916666D01*
X133683690Y-86916666D02*
X133683690Y-86607142D01*
D10*
X137943571Y-85757142D02*
X137991190Y-85614285D01*
X137991190Y-85614285D02*
X138038809Y-85566666D01*
X138038809Y-85566666D02*
X138134047Y-85519047D01*
X138134047Y-85519047D02*
X138276904Y-85519047D01*
X138276904Y-85519047D02*
X138372142Y-85566666D01*
X138372142Y-85566666D02*
X138419761Y-85614285D01*
X138419761Y-85614285D02*
X138467380Y-85709523D01*
X138467380Y-85709523D02*
X138467380Y-86090475D01*
X138467380Y-86090475D02*
X137467380Y-86090475D01*
X137467380Y-86090475D02*
X137467380Y-85757142D01*
X137467380Y-85757142D02*
X137515000Y-85661904D01*
X137515000Y-85661904D02*
X137562619Y-85614285D01*
X137562619Y-85614285D02*
X137657857Y-85566666D01*
X137657857Y-85566666D02*
X137753095Y-85566666D01*
X137753095Y-85566666D02*
X137848333Y-85614285D01*
X137848333Y-85614285D02*
X137895952Y-85661904D01*
X137895952Y-85661904D02*
X137943571Y-85757142D01*
X137943571Y-85757142D02*
X137943571Y-86090475D01*
X138372142Y-84519047D02*
X138419761Y-84566666D01*
X138419761Y-84566666D02*
X138467380Y-84709523D01*
X138467380Y-84709523D02*
X138467380Y-84804761D01*
X138467380Y-84804761D02*
X138419761Y-84947618D01*
X138419761Y-84947618D02*
X138324523Y-85042856D01*
X138324523Y-85042856D02*
X138229285Y-85090475D01*
X138229285Y-85090475D02*
X138038809Y-85138094D01*
X138038809Y-85138094D02*
X137895952Y-85138094D01*
X137895952Y-85138094D02*
X137705476Y-85090475D01*
X137705476Y-85090475D02*
X137610238Y-85042856D01*
X137610238Y-85042856D02*
X137515000Y-84947618D01*
X137515000Y-84947618D02*
X137467380Y-84804761D01*
X137467380Y-84804761D02*
X137467380Y-84709523D01*
X137467380Y-84709523D02*
X137515000Y-84566666D01*
X137515000Y-84566666D02*
X137562619Y-84519047D01*
X137895952Y-83947618D02*
X137848333Y-84042856D01*
X137848333Y-84042856D02*
X137800714Y-84090475D01*
X137800714Y-84090475D02*
X137705476Y-84138094D01*
X137705476Y-84138094D02*
X137657857Y-84138094D01*
X137657857Y-84138094D02*
X137562619Y-84090475D01*
X137562619Y-84090475D02*
X137515000Y-84042856D01*
X137515000Y-84042856D02*
X137467380Y-83947618D01*
X137467380Y-83947618D02*
X137467380Y-83757142D01*
X137467380Y-83757142D02*
X137515000Y-83661904D01*
X137515000Y-83661904D02*
X137562619Y-83614285D01*
X137562619Y-83614285D02*
X137657857Y-83566666D01*
X137657857Y-83566666D02*
X137705476Y-83566666D01*
X137705476Y-83566666D02*
X137800714Y-83614285D01*
X137800714Y-83614285D02*
X137848333Y-83661904D01*
X137848333Y-83661904D02*
X137895952Y-83757142D01*
X137895952Y-83757142D02*
X137895952Y-83947618D01*
X137895952Y-83947618D02*
X137943571Y-84042856D01*
X137943571Y-84042856D02*
X137991190Y-84090475D01*
X137991190Y-84090475D02*
X138086428Y-84138094D01*
X138086428Y-84138094D02*
X138276904Y-84138094D01*
X138276904Y-84138094D02*
X138372142Y-84090475D01*
X138372142Y-84090475D02*
X138419761Y-84042856D01*
X138419761Y-84042856D02*
X138467380Y-83947618D01*
X138467380Y-83947618D02*
X138467380Y-83757142D01*
X138467380Y-83757142D02*
X138419761Y-83661904D01*
X138419761Y-83661904D02*
X138372142Y-83614285D01*
X138372142Y-83614285D02*
X138276904Y-83566666D01*
X138276904Y-83566666D02*
X138086428Y-83566666D01*
X138086428Y-83566666D02*
X137991190Y-83614285D01*
X137991190Y-83614285D02*
X137943571Y-83661904D01*
X137943571Y-83661904D02*
X137895952Y-83757142D01*
X137800714Y-82709523D02*
X138467380Y-82709523D01*
X137419761Y-82947618D02*
X138134047Y-83185713D01*
X138134047Y-83185713D02*
X138134047Y-82566666D01*
X137467380Y-82280951D02*
X137467380Y-81614285D01*
X137467380Y-81614285D02*
X138467380Y-82042856D01*
X138372142Y-80661904D02*
X138419761Y-80709523D01*
X138419761Y-80709523D02*
X138467380Y-80852380D01*
X138467380Y-80852380D02*
X138467380Y-80947618D01*
X138467380Y-80947618D02*
X138419761Y-81090475D01*
X138419761Y-81090475D02*
X138324523Y-81185713D01*
X138324523Y-81185713D02*
X138229285Y-81233332D01*
X138229285Y-81233332D02*
X138038809Y-81280951D01*
X138038809Y-81280951D02*
X137895952Y-81280951D01*
X137895952Y-81280951D02*
X137705476Y-81233332D01*
X137705476Y-81233332D02*
X137610238Y-81185713D01*
X137610238Y-81185713D02*
X137515000Y-81090475D01*
X137515000Y-81090475D02*
X137467380Y-80947618D01*
X137467380Y-80947618D02*
X137467380Y-80852380D01*
X137467380Y-80852380D02*
X137515000Y-80709523D01*
X137515000Y-80709523D02*
X137562619Y-80661904D01*
D12*
X136731309Y-83547619D02*
X136707500Y-83595238D01*
X136707500Y-83595238D02*
X136659880Y-83642857D01*
X136659880Y-83642857D02*
X136588452Y-83714285D01*
X136588452Y-83714285D02*
X136564642Y-83761904D01*
X136564642Y-83761904D02*
X136564642Y-83809523D01*
X136683690Y-83785714D02*
X136659880Y-83833333D01*
X136659880Y-83833333D02*
X136612261Y-83880952D01*
X136612261Y-83880952D02*
X136517023Y-83904761D01*
X136517023Y-83904761D02*
X136350357Y-83904761D01*
X136350357Y-83904761D02*
X136255119Y-83880952D01*
X136255119Y-83880952D02*
X136207500Y-83833333D01*
X136207500Y-83833333D02*
X136183690Y-83785714D01*
X136183690Y-83785714D02*
X136183690Y-83690476D01*
X136183690Y-83690476D02*
X136207500Y-83642857D01*
X136207500Y-83642857D02*
X136255119Y-83595238D01*
X136255119Y-83595238D02*
X136350357Y-83571428D01*
X136350357Y-83571428D02*
X136517023Y-83571428D01*
X136517023Y-83571428D02*
X136612261Y-83595238D01*
X136612261Y-83595238D02*
X136659880Y-83642857D01*
X136659880Y-83642857D02*
X136683690Y-83690476D01*
X136683690Y-83690476D02*
X136683690Y-83785714D01*
X136231309Y-83380951D02*
X136207500Y-83357142D01*
X136207500Y-83357142D02*
X136183690Y-83309523D01*
X136183690Y-83309523D02*
X136183690Y-83190475D01*
X136183690Y-83190475D02*
X136207500Y-83142856D01*
X136207500Y-83142856D02*
X136231309Y-83119047D01*
X136231309Y-83119047D02*
X136278928Y-83095237D01*
X136278928Y-83095237D02*
X136326547Y-83095237D01*
X136326547Y-83095237D02*
X136397976Y-83119047D01*
X136397976Y-83119047D02*
X136683690Y-83404761D01*
X136683690Y-83404761D02*
X136683690Y-83095237D01*
D13*
X134100000Y-79000000D02*
X134100000Y-81000000D01*
X132900000Y-79000000D02*
X134100000Y-79000000D01*
X134100000Y-81000000D02*
X132900000Y-81000000D01*
X132900000Y-81000000D02*
X132900000Y-79000000D01*
X140200000Y-85000000D02*
X140200000Y-82000000D01*
X141850560Y-82700920D02*
X141850560Y-84301120D01*
X141850560Y-83501020D02*
X140948860Y-83501020D01*
X141850560Y-83501020D02*
X143001180Y-82700920D01*
X141850560Y-83501020D02*
X143001180Y-84250320D01*
X143001180Y-83501020D02*
X143999400Y-83501020D01*
X143001180Y-84250320D02*
X143001180Y-82700920D01*
X144800000Y-82000000D02*
X140200000Y-82000000D01*
X144800000Y-82000000D02*
X144800000Y-85000000D01*
X144800000Y-85000000D02*
X140200000Y-85000000D01*
X131200000Y-84450000D02*
X131200000Y-82000000D01*
X131200000Y-84450000D02*
X130650000Y-85020000D01*
X131200000Y-81980000D02*
X129800000Y-81980000D01*
X130650000Y-85020000D02*
X129800000Y-85020000D01*
X129800000Y-85020000D02*
X129800000Y-81980000D01*
X139900000Y-88000000D02*
X139900000Y-86000000D01*
X141100000Y-88000000D02*
X139900000Y-88000000D01*
X139900000Y-86000000D02*
X141100000Y-86000000D01*
X141100000Y-86000000D02*
X141100000Y-88000000D01*
X141100000Y-79000000D02*
X141100000Y-81000000D01*
X139900000Y-79000000D02*
X141100000Y-79000000D01*
X141100000Y-81000000D02*
X139900000Y-81000000D01*
X139900000Y-81000000D02*
X139900000Y-79000000D01*
X132900000Y-84500000D02*
X132900000Y-82500000D01*
X134100000Y-84500000D02*
X132900000Y-84500000D01*
X132900000Y-82500000D02*
X134100000Y-82500000D01*
X134100000Y-82500000D02*
X134100000Y-84500000D01*
X134100000Y-86000000D02*
X134100000Y-88000000D01*
X132900000Y-86000000D02*
X134100000Y-86000000D01*
X134100000Y-88000000D02*
X132900000Y-88000000D01*
X132900000Y-88000000D02*
X132900000Y-86000000D01*
X135800000Y-82550000D02*
X135800000Y-85000000D01*
X135800000Y-82550000D02*
X136350000Y-81980000D01*
X135800000Y-85020000D02*
X137200000Y-85020000D01*
X136350000Y-81980000D02*
X137200000Y-81980000D01*
X137200000Y-81980000D02*
X137200000Y-85020000D01*
M02*
