%TF.GenerationSoftware,KiCad,Pcbnew,(7.0.0-0)*%
%TF.CreationDate,2023-03-05T10:40:59+01:00*%
%TF.ProjectId,FancyLight,46616e63-794c-4696-9768-742e6b696361,A*%
%TF.SameCoordinates,Original*%
%TF.FileFunction,Copper,L2,Bot*%
%TF.FilePolarity,Positive*%
%FSLAX46Y46*%
G04 Gerber Fmt 4.6, Leading zero omitted, Abs format (unit mm)*
G04 Created by KiCad (PCBNEW (7.0.0-0)) date 2023-03-05 10:40:59*
%MOMM*%
%LPD*%
G01*
G04 APERTURE LIST*
G04 Aperture macros list*
%AMRoundRect*
0 Rectangle with rounded corners*
0 $1 Rounding radius*
0 $2 $3 $4 $5 $6 $7 $8 $9 X,Y pos of 4 corners*
0 Add a 4 corners polygon primitive as box body*
4,1,4,$2,$3,$4,$5,$6,$7,$8,$9,$2,$3,0*
0 Add four circle primitives for the rounded corners*
1,1,$1+$1,$2,$3*
1,1,$1+$1,$4,$5*
1,1,$1+$1,$6,$7*
1,1,$1+$1,$8,$9*
0 Add four rect primitives between the rounded corners*
20,1,$1+$1,$2,$3,$4,$5,0*
20,1,$1+$1,$4,$5,$6,$7,0*
20,1,$1+$1,$6,$7,$8,$9,0*
20,1,$1+$1,$8,$9,$2,$3,0*%
%AMRotRect*
0 Rectangle, with rotation*
0 The origin of the aperture is its center*
0 $1 length*
0 $2 width*
0 $3 Rotation angle, in degrees counterclockwise*
0 Add horizontal line*
21,1,$1,$2,0,0,$3*%
G04 Aperture macros list end*
%TA.AperFunction,ComponentPad*%
%ADD10RoundRect,0.400000X-0.400000X-0.400000X0.400000X-0.400000X0.400000X0.400000X-0.400000X0.400000X0*%
%TD*%
%TA.AperFunction,ComponentPad*%
%ADD11RotRect,1.800000X1.800000X15.000000*%
%TD*%
%TA.AperFunction,ComponentPad*%
%ADD12C,1.800000*%
%TD*%
%TA.AperFunction,ComponentPad*%
%ADD13R,1.800000X1.800000*%
%TD*%
%TA.AperFunction,ComponentPad*%
%ADD14RotRect,1.800000X1.800000X345.000000*%
%TD*%
%TA.AperFunction,ViaPad*%
%ADD15C,0.800000*%
%TD*%
%TA.AperFunction,Conductor*%
%ADD16C,1.000000*%
%TD*%
G04 APERTURE END LIST*
D10*
X146000000Y-89000000D03*
X128000000Y-89000000D03*
X128000000Y-78000000D03*
X146000000Y-78000000D03*
D11*
X142773273Y-87328699D03*
D12*
X145226726Y-86671300D03*
D13*
X135729999Y-86999999D03*
D12*
X138270000Y-87000000D03*
D14*
X128773273Y-86671299D03*
D12*
X131226726Y-87328700D03*
D14*
X142773273Y-79671299D03*
D12*
X145226726Y-80328700D03*
D13*
X135729999Y-79999999D03*
D12*
X138270000Y-80000000D03*
D11*
X128773273Y-80328699D03*
D12*
X131226726Y-79671300D03*
D15*
X139000000Y-85000000D03*
X136500000Y-85000000D03*
X134500000Y-81500000D03*
X132500000Y-81500000D03*
X139000000Y-82000000D03*
D16*
X146000000Y-89000000D02*
X144000000Y-89000000D01*
X144000000Y-89000000D02*
X143400000Y-89000000D01*
X128000000Y-89000000D02*
X130200000Y-89000000D01*
%TA.AperFunction,Conductor*%
G36*
X144878362Y-77213346D02*
G01*
X144922277Y-77250510D01*
X144944693Y-77303492D01*
X144940786Y-77360890D01*
X144905914Y-77472804D01*
X144899500Y-77543384D01*
X144899500Y-78456616D01*
X144899754Y-78459419D01*
X144899755Y-78459425D01*
X144904408Y-78510628D01*
X144905914Y-78527196D01*
X144907862Y-78533448D01*
X144907864Y-78533457D01*
X144927064Y-78595071D01*
X144956522Y-78689606D01*
X144960399Y-78696020D01*
X144960400Y-78696021D01*
X145030740Y-78812378D01*
X145044528Y-78835185D01*
X145049831Y-78840487D01*
X145049831Y-78840488D01*
X145136226Y-78926883D01*
X145168915Y-78984782D01*
X145166996Y-79051244D01*
X145131020Y-79107159D01*
X145071331Y-79136453D01*
X144902421Y-79168028D01*
X144902414Y-79168029D01*
X144896786Y-79169082D01*
X144891443Y-79171151D01*
X144891439Y-79171153D01*
X144694667Y-79247383D01*
X144694662Y-79247385D01*
X144689325Y-79249453D01*
X144684453Y-79252469D01*
X144684450Y-79252471D01*
X144505035Y-79363559D01*
X144505027Y-79363564D01*
X144500164Y-79366576D01*
X144495933Y-79370432D01*
X144495929Y-79370436D01*
X144339985Y-79512597D01*
X144339975Y-79512607D01*
X144335745Y-79516464D01*
X144332292Y-79521035D01*
X144332286Y-79521043D01*
X144288031Y-79579646D01*
X144234227Y-79620406D01*
X144167044Y-79626945D01*
X144106390Y-79597323D01*
X144070239Y-79540319D01*
X144069303Y-79472826D01*
X144177416Y-79069343D01*
X144181104Y-79044318D01*
X144163872Y-78933301D01*
X144107698Y-78836006D01*
X144078335Y-78812378D01*
X144027438Y-78771421D01*
X144027434Y-78771419D01*
X144020171Y-78765574D01*
X144011504Y-78762139D01*
X144011502Y-78762138D01*
X143999982Y-78757573D01*
X143999980Y-78757572D01*
X143996656Y-78756255D01*
X143993205Y-78755330D01*
X143993195Y-78755327D01*
X142174770Y-78268083D01*
X142174766Y-78268082D01*
X142171317Y-78267158D01*
X142167788Y-78266638D01*
X142167779Y-78266636D01*
X142155518Y-78264829D01*
X142155513Y-78264829D01*
X142146292Y-78263470D01*
X142137079Y-78264899D01*
X142137077Y-78264900D01*
X142046626Y-78278940D01*
X142046625Y-78278940D01*
X142035275Y-78280702D01*
X142025329Y-78286444D01*
X142025327Y-78286445D01*
X141947932Y-78331129D01*
X141947927Y-78331132D01*
X141937980Y-78336876D01*
X141930776Y-78345827D01*
X141930774Y-78345830D01*
X141873395Y-78417135D01*
X141873391Y-78417141D01*
X141867548Y-78424403D01*
X141864114Y-78433066D01*
X141864112Y-78433071D01*
X141859547Y-78444591D01*
X141858229Y-78447918D01*
X141857305Y-78451363D01*
X141857301Y-78451378D01*
X141381513Y-80227050D01*
X141369132Y-80273257D01*
X141368612Y-80276781D01*
X141368610Y-80276794D01*
X141366803Y-80289055D01*
X141366803Y-80289060D01*
X141365444Y-80298282D01*
X141366873Y-80307494D01*
X141366874Y-80307496D01*
X141377050Y-80373055D01*
X141382676Y-80409299D01*
X141388419Y-80419246D01*
X141433103Y-80496641D01*
X141433104Y-80496643D01*
X141438850Y-80506594D01*
X141464428Y-80527176D01*
X141519109Y-80571178D01*
X141519111Y-80571179D01*
X141526377Y-80577026D01*
X141549892Y-80586345D01*
X143375231Y-81075442D01*
X143400256Y-81079130D01*
X143511273Y-81061898D01*
X143608568Y-81005724D01*
X143679000Y-80918197D01*
X143688319Y-80894682D01*
X143795225Y-80495699D01*
X143830339Y-80437193D01*
X143891089Y-80406121D01*
X143959080Y-80411893D01*
X144013723Y-80452762D01*
X144038471Y-80516352D01*
X144041611Y-80550236D01*
X144043180Y-80555750D01*
X144100927Y-80758713D01*
X144100930Y-80758721D01*
X144102497Y-80764228D01*
X144105049Y-80769353D01*
X144105051Y-80769358D01*
X144199113Y-80958259D01*
X144199115Y-80958263D01*
X144201668Y-80963389D01*
X144205117Y-80967956D01*
X144205120Y-80967961D01*
X144332287Y-81136358D01*
X144332292Y-81136363D01*
X144335745Y-81140936D01*
X144339981Y-81144797D01*
X144339985Y-81144802D01*
X144438298Y-81234426D01*
X144500164Y-81290824D01*
X144689325Y-81407947D01*
X144896786Y-81488318D01*
X145115483Y-81529200D01*
X145332240Y-81529200D01*
X145337969Y-81529200D01*
X145556666Y-81488318D01*
X145764127Y-81407947D01*
X145953288Y-81290824D01*
X146117707Y-81140936D01*
X146251784Y-80963389D01*
X146350955Y-80764228D01*
X146411841Y-80550236D01*
X146432369Y-80328700D01*
X146411841Y-80107164D01*
X146350955Y-79893172D01*
X146251784Y-79694011D01*
X146238945Y-79677009D01*
X146121164Y-79521041D01*
X146121160Y-79521037D01*
X146117707Y-79516464D01*
X146113470Y-79512601D01*
X146113466Y-79512597D01*
X145987372Y-79397648D01*
X145953288Y-79366576D01*
X145894096Y-79329926D01*
X145850493Y-79283835D01*
X145835396Y-79222209D01*
X145852760Y-79161182D01*
X145898038Y-79116733D01*
X145959375Y-79100500D01*
X146453797Y-79100500D01*
X146456616Y-79100500D01*
X146527196Y-79094086D01*
X146639109Y-79059213D01*
X146696508Y-79055307D01*
X146749490Y-79077723D01*
X146786654Y-79121638D01*
X146800000Y-79177599D01*
X146800000Y-87613832D01*
X146787212Y-87668676D01*
X146751487Y-87712208D01*
X146700191Y-87735449D01*
X146643907Y-87733607D01*
X146547057Y-87707656D01*
X146535898Y-87705738D01*
X146465416Y-87700191D01*
X146460537Y-87700000D01*
X146200338Y-87700000D01*
X146143027Y-87685961D01*
X146098693Y-87647023D01*
X146077375Y-87592003D01*
X146083900Y-87533359D01*
X146111039Y-87492937D01*
X146109609Y-87491633D01*
X146113465Y-87487402D01*
X146117707Y-87483536D01*
X146251784Y-87305989D01*
X146350955Y-87106828D01*
X146411841Y-86892836D01*
X146432369Y-86671300D01*
X146411841Y-86449764D01*
X146350955Y-86235772D01*
X146251784Y-86036611D01*
X146248331Y-86032038D01*
X146121164Y-85863641D01*
X146121160Y-85863637D01*
X146117707Y-85859064D01*
X146113470Y-85855201D01*
X146113466Y-85855197D01*
X145957522Y-85713036D01*
X145957523Y-85713036D01*
X145953288Y-85709176D01*
X145948418Y-85706161D01*
X145948416Y-85706159D01*
X145769001Y-85595071D01*
X145769002Y-85595071D01*
X145764127Y-85592053D01*
X145556666Y-85511682D01*
X145551028Y-85510628D01*
X145343598Y-85471852D01*
X145343595Y-85471851D01*
X145337969Y-85470800D01*
X145115483Y-85470800D01*
X145109857Y-85471851D01*
X145109853Y-85471852D01*
X144902423Y-85510628D01*
X144902420Y-85510628D01*
X144896786Y-85511682D01*
X144891443Y-85513751D01*
X144891439Y-85513753D01*
X144694667Y-85589983D01*
X144694662Y-85589985D01*
X144689325Y-85592053D01*
X144684453Y-85595069D01*
X144684450Y-85595071D01*
X144505035Y-85706159D01*
X144505027Y-85706164D01*
X144500164Y-85709176D01*
X144495933Y-85713032D01*
X144495929Y-85713036D01*
X144339985Y-85855197D01*
X144339975Y-85855207D01*
X144335745Y-85859064D01*
X144332296Y-85863630D01*
X144332287Y-85863641D01*
X144205120Y-86032038D01*
X144205113Y-86032048D01*
X144201668Y-86036611D01*
X144199118Y-86041731D01*
X144199113Y-86041740D01*
X144105051Y-86230641D01*
X144105047Y-86230649D01*
X144102497Y-86235772D01*
X144100931Y-86241275D01*
X144100927Y-86241286D01*
X144051510Y-86414972D01*
X144041611Y-86449764D01*
X144041082Y-86455467D01*
X144041082Y-86455470D01*
X144038471Y-86483649D01*
X144013723Y-86547239D01*
X143959080Y-86588107D01*
X143891090Y-86593880D01*
X143830339Y-86562808D01*
X143795225Y-86504301D01*
X143786791Y-86472824D01*
X143688318Y-86105319D01*
X143679000Y-86081803D01*
X143671748Y-86072791D01*
X143615773Y-86003230D01*
X143608568Y-85994276D01*
X143598617Y-85988530D01*
X143598615Y-85988529D01*
X143521220Y-85943845D01*
X143511273Y-85938102D01*
X143429982Y-85925484D01*
X143409469Y-85922300D01*
X143409468Y-85922299D01*
X143400256Y-85920870D01*
X143391038Y-85922228D01*
X143391032Y-85922228D01*
X143378775Y-85924034D01*
X143378760Y-85924036D01*
X143375231Y-85924557D01*
X143371776Y-85925482D01*
X143371770Y-85925484D01*
X141553344Y-86412731D01*
X141553339Y-86412732D01*
X141549893Y-86413656D01*
X141546580Y-86414968D01*
X141546570Y-86414972D01*
X141535047Y-86419538D01*
X141535043Y-86419539D01*
X141526377Y-86422974D01*
X141519115Y-86428817D01*
X141519109Y-86428821D01*
X141447804Y-86486200D01*
X141447801Y-86486202D01*
X141438850Y-86493406D01*
X141433106Y-86503353D01*
X141433103Y-86503358D01*
X141388419Y-86580753D01*
X141388418Y-86580755D01*
X141382676Y-86590701D01*
X141380914Y-86602051D01*
X141380914Y-86602052D01*
X141371052Y-86665591D01*
X141365444Y-86701718D01*
X141366802Y-86710935D01*
X141366802Y-86710941D01*
X141368608Y-86723198D01*
X141368610Y-86723209D01*
X141369131Y-86726743D01*
X141370057Y-86730201D01*
X141370058Y-86730203D01*
X141841145Y-88488318D01*
X141858230Y-88552081D01*
X141867548Y-88575597D01*
X141873393Y-88582860D01*
X141873395Y-88582864D01*
X141930774Y-88654169D01*
X141937980Y-88663124D01*
X142035275Y-88719298D01*
X142146292Y-88736530D01*
X142171317Y-88732843D01*
X143996655Y-88243744D01*
X144020171Y-88234426D01*
X144107698Y-88163994D01*
X144163872Y-88066699D01*
X144181104Y-87955682D01*
X144177417Y-87930657D01*
X144069304Y-87527174D01*
X144070240Y-87459681D01*
X144106391Y-87402677D01*
X144167045Y-87373055D01*
X144234229Y-87379594D01*
X144288033Y-87420355D01*
X144332287Y-87478958D01*
X144332292Y-87478963D01*
X144335745Y-87483536D01*
X144339981Y-87487397D01*
X144339985Y-87487402D01*
X144387174Y-87530420D01*
X144500164Y-87633424D01*
X144689325Y-87750547D01*
X144694666Y-87752616D01*
X144694676Y-87752621D01*
X144865975Y-87818983D01*
X144913522Y-87851850D01*
X144941005Y-87902700D01*
X144942451Y-87960483D01*
X144917547Y-88012644D01*
X144845133Y-88102068D01*
X144838088Y-88112915D01*
X144758097Y-88269907D01*
X144753469Y-88281963D01*
X144707656Y-88452942D01*
X144705738Y-88464101D01*
X144700191Y-88534583D01*
X144700000Y-88539463D01*
X144700000Y-88733674D01*
X144703450Y-88746549D01*
X144716326Y-88750000D01*
X146126000Y-88750000D01*
X146188000Y-88766613D01*
X146233387Y-88812000D01*
X146250000Y-88874000D01*
X146250000Y-89126000D01*
X146233387Y-89188000D01*
X146188000Y-89233387D01*
X146126000Y-89250000D01*
X144716326Y-89250000D01*
X144703450Y-89253450D01*
X144700000Y-89266326D01*
X144700000Y-89460537D01*
X144700191Y-89465416D01*
X144705738Y-89535898D01*
X144707656Y-89547057D01*
X144733607Y-89643907D01*
X144735449Y-89700191D01*
X144712208Y-89751487D01*
X144668676Y-89787212D01*
X144613832Y-89800000D01*
X129386168Y-89800000D01*
X129331324Y-89787212D01*
X129287792Y-89751487D01*
X129264551Y-89700191D01*
X129266393Y-89643907D01*
X129292343Y-89547057D01*
X129294261Y-89535898D01*
X129299808Y-89465416D01*
X129300000Y-89460537D01*
X129300000Y-89266326D01*
X129296549Y-89253450D01*
X129283674Y-89250000D01*
X127874000Y-89250000D01*
X127812000Y-89233387D01*
X127766613Y-89188000D01*
X127750000Y-89126000D01*
X127750000Y-88874000D01*
X127766613Y-88812000D01*
X127812000Y-88766613D01*
X127874000Y-88750000D01*
X129283674Y-88750000D01*
X129296549Y-88746549D01*
X129300000Y-88733674D01*
X129300000Y-88539463D01*
X129299808Y-88534583D01*
X129294261Y-88464101D01*
X129292343Y-88452942D01*
X129246530Y-88281963D01*
X129241901Y-88269904D01*
X129232511Y-88251475D01*
X129219002Y-88196486D01*
X129231348Y-88141225D01*
X129266975Y-88097215D01*
X129318454Y-88073632D01*
X129367976Y-88075173D01*
X129368263Y-88073789D01*
X129371767Y-88074513D01*
X129375231Y-88075442D01*
X129400256Y-88079130D01*
X129511273Y-88061898D01*
X129608568Y-88005724D01*
X129679000Y-87918197D01*
X129688319Y-87894682D01*
X129795225Y-87495699D01*
X129830339Y-87437193D01*
X129891089Y-87406121D01*
X129959080Y-87411893D01*
X130013723Y-87452762D01*
X130038471Y-87516352D01*
X130041611Y-87550236D01*
X130043180Y-87555750D01*
X130100927Y-87758713D01*
X130100930Y-87758721D01*
X130102497Y-87764228D01*
X130105049Y-87769353D01*
X130105051Y-87769358D01*
X130199113Y-87958259D01*
X130199115Y-87958263D01*
X130201668Y-87963389D01*
X130205117Y-87967956D01*
X130205120Y-87967961D01*
X130332287Y-88136358D01*
X130332292Y-88136363D01*
X130335745Y-88140936D01*
X130339981Y-88144797D01*
X130339985Y-88144802D01*
X130438298Y-88234426D01*
X130500164Y-88290824D01*
X130689325Y-88407947D01*
X130896786Y-88488318D01*
X131115483Y-88529200D01*
X131332240Y-88529200D01*
X131337969Y-88529200D01*
X131556666Y-88488318D01*
X131764127Y-88407947D01*
X131953288Y-88290824D01*
X132117707Y-88140936D01*
X132251784Y-87963389D01*
X132262782Y-87941302D01*
X134529500Y-87941302D01*
X134529501Y-87944864D01*
X134529912Y-87948411D01*
X134529913Y-87948422D01*
X134531054Y-87958259D01*
X134532415Y-87969991D01*
X134536181Y-87978521D01*
X134536182Y-87978523D01*
X134550730Y-88011470D01*
X134577794Y-88072765D01*
X134657235Y-88152206D01*
X134728111Y-88183501D01*
X134751477Y-88193818D01*
X134751478Y-88193818D01*
X134760009Y-88197585D01*
X134785135Y-88200500D01*
X136674864Y-88200499D01*
X136699991Y-88197585D01*
X136802765Y-88152206D01*
X136882206Y-88072765D01*
X136927585Y-87969991D01*
X136930500Y-87944865D01*
X136930499Y-87530417D01*
X136947884Y-87467102D01*
X136995163Y-87421538D01*
X137059080Y-87406505D01*
X137121713Y-87426217D01*
X137165499Y-87475148D01*
X137242387Y-87629559D01*
X137242389Y-87629563D01*
X137244942Y-87634689D01*
X137248391Y-87639256D01*
X137248394Y-87639261D01*
X137375561Y-87807658D01*
X137375566Y-87807663D01*
X137379019Y-87812236D01*
X137383255Y-87816097D01*
X137383259Y-87816102D01*
X137422473Y-87851850D01*
X137543438Y-87962124D01*
X137732599Y-88079247D01*
X137940060Y-88159618D01*
X138158757Y-88200500D01*
X138375514Y-88200500D01*
X138381243Y-88200500D01*
X138599940Y-88159618D01*
X138807401Y-88079247D01*
X138996562Y-87962124D01*
X139160981Y-87812236D01*
X139295058Y-87634689D01*
X139394229Y-87435528D01*
X139455115Y-87221536D01*
X139475643Y-87000000D01*
X139455115Y-86778464D01*
X139398546Y-86579646D01*
X139395798Y-86569986D01*
X139395797Y-86569984D01*
X139394229Y-86564472D01*
X139319131Y-86413656D01*
X139297612Y-86370440D01*
X139297610Y-86370436D01*
X139295058Y-86365311D01*
X139291605Y-86360738D01*
X139164438Y-86192341D01*
X139164434Y-86192337D01*
X139160981Y-86187764D01*
X139156744Y-86183901D01*
X139156740Y-86183897D01*
X139011591Y-86051577D01*
X138996562Y-86037876D01*
X138991692Y-86034861D01*
X138991690Y-86034859D01*
X138815042Y-85925484D01*
X138807401Y-85920753D01*
X138599940Y-85840382D01*
X138576531Y-85836006D01*
X138386872Y-85800552D01*
X138386869Y-85800551D01*
X138381243Y-85799500D01*
X138158757Y-85799500D01*
X138153131Y-85800551D01*
X138153127Y-85800552D01*
X137945697Y-85839328D01*
X137945694Y-85839328D01*
X137940060Y-85840382D01*
X137934717Y-85842451D01*
X137934713Y-85842453D01*
X137737941Y-85918683D01*
X137737936Y-85918685D01*
X137732599Y-85920753D01*
X137727727Y-85923769D01*
X137727724Y-85923771D01*
X137548309Y-86034859D01*
X137548301Y-86034864D01*
X137543438Y-86037876D01*
X137539207Y-86041732D01*
X137539203Y-86041736D01*
X137383259Y-86183897D01*
X137383249Y-86183907D01*
X137379019Y-86187764D01*
X137375570Y-86192330D01*
X137375561Y-86192341D01*
X137248394Y-86360738D01*
X137248387Y-86360748D01*
X137244942Y-86365311D01*
X137242392Y-86370431D01*
X137242387Y-86370440D01*
X137165499Y-86524852D01*
X137121713Y-86573783D01*
X137059081Y-86593495D01*
X136995163Y-86578462D01*
X136947884Y-86532898D01*
X136930499Y-86469580D01*
X136930499Y-86058714D01*
X136930499Y-86058709D01*
X136930499Y-86055136D01*
X136927585Y-86030009D01*
X136882206Y-85927235D01*
X136802765Y-85847794D01*
X136759748Y-85828800D01*
X136708522Y-85806181D01*
X136708517Y-85806179D01*
X136699991Y-85802415D01*
X136690726Y-85801340D01*
X136678414Y-85799911D01*
X136678401Y-85799910D01*
X136674865Y-85799500D01*
X136671290Y-85799500D01*
X134788714Y-85799500D01*
X134788696Y-85799500D01*
X134785136Y-85799501D01*
X134781589Y-85799912D01*
X134781577Y-85799913D01*
X134769277Y-85801340D01*
X134769275Y-85801340D01*
X134760009Y-85802415D01*
X134751479Y-85806180D01*
X134751476Y-85806182D01*
X134667745Y-85843153D01*
X134667743Y-85843154D01*
X134657235Y-85847794D01*
X134649112Y-85855916D01*
X134649109Y-85855919D01*
X134585919Y-85919109D01*
X134585916Y-85919112D01*
X134577794Y-85927235D01*
X134573154Y-85937743D01*
X134573153Y-85937745D01*
X134536181Y-86021477D01*
X134536179Y-86021484D01*
X134532415Y-86030009D01*
X134531340Y-86039271D01*
X134531340Y-86039273D01*
X134529911Y-86051585D01*
X134529910Y-86051599D01*
X134529500Y-86055135D01*
X134529500Y-86058708D01*
X134529500Y-86058709D01*
X134529500Y-87941285D01*
X134529500Y-87941302D01*
X132262782Y-87941302D01*
X132350955Y-87764228D01*
X132411841Y-87550236D01*
X132432369Y-87328700D01*
X132411841Y-87107164D01*
X132350955Y-86893172D01*
X132268083Y-86726743D01*
X132254338Y-86699140D01*
X132254337Y-86699139D01*
X132251784Y-86694011D01*
X132238945Y-86677009D01*
X132121164Y-86521041D01*
X132121160Y-86521037D01*
X132117707Y-86516464D01*
X132113470Y-86512601D01*
X132113466Y-86512597D01*
X131987372Y-86397648D01*
X131953288Y-86366576D01*
X131948418Y-86363561D01*
X131948416Y-86363559D01*
X131769001Y-86252471D01*
X131769002Y-86252471D01*
X131764127Y-86249453D01*
X131728812Y-86235772D01*
X131562012Y-86171153D01*
X131562011Y-86171152D01*
X131556666Y-86169082D01*
X131551028Y-86168028D01*
X131343598Y-86129252D01*
X131343595Y-86129251D01*
X131337969Y-86128200D01*
X131115483Y-86128200D01*
X131109857Y-86129251D01*
X131109853Y-86129252D01*
X130902423Y-86168028D01*
X130902420Y-86168028D01*
X130896786Y-86169082D01*
X130891443Y-86171151D01*
X130891439Y-86171153D01*
X130694667Y-86247383D01*
X130694662Y-86247385D01*
X130689325Y-86249453D01*
X130684453Y-86252469D01*
X130684450Y-86252471D01*
X130505035Y-86363559D01*
X130505027Y-86363564D01*
X130500164Y-86366576D01*
X130495933Y-86370432D01*
X130495929Y-86370436D01*
X130339985Y-86512597D01*
X130339975Y-86512607D01*
X130335745Y-86516464D01*
X130332292Y-86521035D01*
X130332286Y-86521043D01*
X130288031Y-86579646D01*
X130234227Y-86620406D01*
X130167044Y-86626945D01*
X130106390Y-86597323D01*
X130070239Y-86540319D01*
X130069303Y-86472826D01*
X130177416Y-86069343D01*
X130181104Y-86044318D01*
X130163872Y-85933301D01*
X130107698Y-85836006D01*
X130098743Y-85828800D01*
X130027438Y-85771421D01*
X130027434Y-85771419D01*
X130020171Y-85765574D01*
X130011504Y-85762139D01*
X130011502Y-85762138D01*
X129999982Y-85757573D01*
X129999980Y-85757572D01*
X129996656Y-85756255D01*
X129993205Y-85755330D01*
X129993195Y-85755327D01*
X128174770Y-85268083D01*
X128174766Y-85268082D01*
X128171317Y-85267158D01*
X128167788Y-85266638D01*
X128167779Y-85266636D01*
X128155518Y-85264829D01*
X128155513Y-85264829D01*
X128146292Y-85263470D01*
X128137079Y-85264899D01*
X128137077Y-85264900D01*
X128046626Y-85278940D01*
X128046625Y-85278940D01*
X128035275Y-85280702D01*
X128025329Y-85286444D01*
X128025327Y-85286445D01*
X127947932Y-85331129D01*
X127947927Y-85331132D01*
X127937980Y-85336876D01*
X127930776Y-85345827D01*
X127930774Y-85345830D01*
X127873395Y-85417135D01*
X127873391Y-85417141D01*
X127867548Y-85424403D01*
X127864114Y-85433066D01*
X127864112Y-85433071D01*
X127859547Y-85444591D01*
X127858229Y-85447918D01*
X127857305Y-85451363D01*
X127857301Y-85451378D01*
X127443775Y-86994685D01*
X127415422Y-87046365D01*
X127366411Y-87079114D01*
X127307815Y-87085531D01*
X127252877Y-87064167D01*
X127214011Y-87019849D01*
X127200000Y-86962592D01*
X127200000Y-80037412D01*
X127214011Y-79980155D01*
X127252876Y-79935837D01*
X127307815Y-79914473D01*
X127366410Y-79920890D01*
X127415422Y-79953639D01*
X127443775Y-80005318D01*
X127841145Y-81488318D01*
X127858230Y-81552081D01*
X127867548Y-81575597D01*
X127873393Y-81582860D01*
X127873395Y-81582864D01*
X127930774Y-81654169D01*
X127937980Y-81663124D01*
X128035275Y-81719298D01*
X128146292Y-81736530D01*
X128171317Y-81732843D01*
X129996655Y-81243744D01*
X130020171Y-81234426D01*
X130107698Y-81163994D01*
X130163872Y-81066699D01*
X130181104Y-80955682D01*
X130178985Y-80941302D01*
X134529500Y-80941302D01*
X134529501Y-80944864D01*
X134529912Y-80948411D01*
X134529913Y-80948422D01*
X134531054Y-80958259D01*
X134532415Y-80969991D01*
X134536181Y-80978521D01*
X134536182Y-80978523D01*
X134550730Y-81011470D01*
X134577794Y-81072765D01*
X134657235Y-81152206D01*
X134728111Y-81183501D01*
X134751477Y-81193818D01*
X134751478Y-81193818D01*
X134760009Y-81197585D01*
X134785135Y-81200500D01*
X136674864Y-81200499D01*
X136699991Y-81197585D01*
X136802765Y-81152206D01*
X136882206Y-81072765D01*
X136927585Y-80969991D01*
X136930500Y-80944865D01*
X136930499Y-80530417D01*
X136947884Y-80467102D01*
X136995163Y-80421538D01*
X137059080Y-80406505D01*
X137121713Y-80426217D01*
X137165499Y-80475148D01*
X137242387Y-80629559D01*
X137242389Y-80629563D01*
X137244942Y-80634689D01*
X137248391Y-80639256D01*
X137248394Y-80639261D01*
X137375561Y-80807658D01*
X137375566Y-80807663D01*
X137379019Y-80812236D01*
X137383255Y-80816097D01*
X137383259Y-80816102D01*
X137400667Y-80831971D01*
X137543438Y-80962124D01*
X137732599Y-81079247D01*
X137940060Y-81159618D01*
X138158757Y-81200500D01*
X138375514Y-81200500D01*
X138381243Y-81200500D01*
X138599940Y-81159618D01*
X138807401Y-81079247D01*
X138996562Y-80962124D01*
X139160981Y-80812236D01*
X139295058Y-80634689D01*
X139394229Y-80435528D01*
X139455115Y-80221536D01*
X139475643Y-80000000D01*
X139455115Y-79778464D01*
X139398546Y-79579646D01*
X139395798Y-79569986D01*
X139395797Y-79569984D01*
X139394229Y-79564472D01*
X139319131Y-79413656D01*
X139297612Y-79370440D01*
X139297610Y-79370436D01*
X139295058Y-79365311D01*
X139291605Y-79360738D01*
X139164438Y-79192341D01*
X139164434Y-79192337D01*
X139160981Y-79187764D01*
X139156744Y-79183901D01*
X139156740Y-79183897D01*
X139027199Y-79065805D01*
X138996562Y-79037876D01*
X138991692Y-79034861D01*
X138991690Y-79034859D01*
X138817301Y-78926883D01*
X138807401Y-78920753D01*
X138599940Y-78840382D01*
X138572139Y-78835185D01*
X138386872Y-78800552D01*
X138386869Y-78800551D01*
X138381243Y-78799500D01*
X138158757Y-78799500D01*
X138153131Y-78800551D01*
X138153127Y-78800552D01*
X137945697Y-78839328D01*
X137945694Y-78839328D01*
X137940060Y-78840382D01*
X137934717Y-78842451D01*
X137934713Y-78842453D01*
X137737941Y-78918683D01*
X137737936Y-78918685D01*
X137732599Y-78920753D01*
X137727727Y-78923769D01*
X137727724Y-78923771D01*
X137548309Y-79034859D01*
X137548301Y-79034864D01*
X137543438Y-79037876D01*
X137539207Y-79041732D01*
X137539203Y-79041736D01*
X137383259Y-79183897D01*
X137383249Y-79183907D01*
X137379019Y-79187764D01*
X137375570Y-79192330D01*
X137375561Y-79192341D01*
X137248394Y-79360738D01*
X137248387Y-79360748D01*
X137244942Y-79365311D01*
X137242392Y-79370431D01*
X137242387Y-79370440D01*
X137165499Y-79524852D01*
X137121713Y-79573783D01*
X137059081Y-79593495D01*
X136995163Y-79578462D01*
X136947884Y-79532898D01*
X136930499Y-79469580D01*
X136930499Y-79058714D01*
X136930499Y-79058709D01*
X136930499Y-79055136D01*
X136927585Y-79030009D01*
X136882206Y-78927235D01*
X136802765Y-78847794D01*
X136776068Y-78836006D01*
X136708522Y-78806181D01*
X136708517Y-78806179D01*
X136699991Y-78802415D01*
X136690726Y-78801340D01*
X136678414Y-78799911D01*
X136678401Y-78799910D01*
X136674865Y-78799500D01*
X136671290Y-78799500D01*
X134788714Y-78799500D01*
X134788696Y-78799500D01*
X134785136Y-78799501D01*
X134781589Y-78799912D01*
X134781577Y-78799913D01*
X134769277Y-78801340D01*
X134769275Y-78801340D01*
X134760009Y-78802415D01*
X134751479Y-78806180D01*
X134751476Y-78806182D01*
X134667745Y-78843153D01*
X134667743Y-78843154D01*
X134657235Y-78847794D01*
X134649112Y-78855916D01*
X134649109Y-78855919D01*
X134585919Y-78919109D01*
X134585916Y-78919112D01*
X134577794Y-78927235D01*
X134573154Y-78937743D01*
X134573153Y-78937745D01*
X134536181Y-79021477D01*
X134536179Y-79021484D01*
X134532415Y-79030009D01*
X134531340Y-79039271D01*
X134531340Y-79039273D01*
X134529911Y-79051585D01*
X134529910Y-79051599D01*
X134529500Y-79055135D01*
X134529500Y-79058708D01*
X134529500Y-79058709D01*
X134529500Y-80941285D01*
X134529500Y-80941302D01*
X130178985Y-80941302D01*
X130177417Y-80930657D01*
X130069304Y-80527174D01*
X130070240Y-80459681D01*
X130106391Y-80402677D01*
X130167045Y-80373055D01*
X130234229Y-80379594D01*
X130288033Y-80420355D01*
X130332287Y-80478958D01*
X130332292Y-80478963D01*
X130335745Y-80483536D01*
X130339981Y-80487397D01*
X130339985Y-80487402D01*
X130438298Y-80577026D01*
X130500164Y-80633424D01*
X130689325Y-80750547D01*
X130896786Y-80830918D01*
X131115483Y-80871800D01*
X131332240Y-80871800D01*
X131337969Y-80871800D01*
X131556666Y-80830918D01*
X131764127Y-80750547D01*
X131953288Y-80633424D01*
X132117707Y-80483536D01*
X132251784Y-80305989D01*
X132350955Y-80106828D01*
X132411841Y-79892836D01*
X132432369Y-79671300D01*
X132411841Y-79449764D01*
X132350955Y-79235772D01*
X132251784Y-79036611D01*
X132248331Y-79032038D01*
X132121164Y-78863641D01*
X132121160Y-78863637D01*
X132117707Y-78859064D01*
X132113470Y-78855201D01*
X132113466Y-78855197D01*
X131957522Y-78713036D01*
X131957523Y-78713036D01*
X131953288Y-78709176D01*
X131948418Y-78706161D01*
X131948416Y-78706159D01*
X131769001Y-78595071D01*
X131769002Y-78595071D01*
X131764127Y-78592053D01*
X131579843Y-78520661D01*
X131562012Y-78513753D01*
X131562011Y-78513752D01*
X131556666Y-78511682D01*
X131551028Y-78510628D01*
X131343598Y-78471852D01*
X131343595Y-78471851D01*
X131337969Y-78470800D01*
X131115483Y-78470800D01*
X131109857Y-78471851D01*
X131109853Y-78471852D01*
X130902423Y-78510628D01*
X130902420Y-78510628D01*
X130896786Y-78511682D01*
X130891443Y-78513751D01*
X130891439Y-78513753D01*
X130694667Y-78589983D01*
X130694662Y-78589985D01*
X130689325Y-78592053D01*
X130684453Y-78595069D01*
X130684450Y-78595071D01*
X130505035Y-78706159D01*
X130505027Y-78706164D01*
X130500164Y-78709176D01*
X130495933Y-78713032D01*
X130495929Y-78713036D01*
X130339985Y-78855197D01*
X130339975Y-78855207D01*
X130335745Y-78859064D01*
X130332296Y-78863630D01*
X130332287Y-78863641D01*
X130205120Y-79032038D01*
X130205113Y-79032048D01*
X130201668Y-79036611D01*
X130199118Y-79041731D01*
X130199113Y-79041740D01*
X130105051Y-79230641D01*
X130105047Y-79230649D01*
X130102497Y-79235772D01*
X130100931Y-79241275D01*
X130100927Y-79241286D01*
X130051510Y-79414972D01*
X130041611Y-79449764D01*
X130041082Y-79455467D01*
X130041082Y-79455470D01*
X130038471Y-79483649D01*
X130013723Y-79547239D01*
X129959080Y-79588107D01*
X129891090Y-79593880D01*
X129830339Y-79562808D01*
X129795225Y-79504301D01*
X129786791Y-79472824D01*
X129688318Y-79105319D01*
X129679000Y-79081803D01*
X129671748Y-79072791D01*
X129615773Y-79003230D01*
X129608568Y-78994276D01*
X129598617Y-78988530D01*
X129598615Y-78988529D01*
X129521220Y-78943845D01*
X129511273Y-78938102D01*
X129429988Y-78925485D01*
X129409469Y-78922300D01*
X129409468Y-78922299D01*
X129400256Y-78920870D01*
X129391038Y-78922228D01*
X129391032Y-78922228D01*
X129378775Y-78924034D01*
X129378760Y-78924036D01*
X129375231Y-78924557D01*
X129371773Y-78925483D01*
X129371766Y-78925485D01*
X129107469Y-78996303D01*
X129049106Y-78997713D01*
X128996566Y-78972262D01*
X128961495Y-78925591D01*
X128951667Y-78868044D01*
X128969259Y-78812378D01*
X128973005Y-78806182D01*
X129043478Y-78689606D01*
X129094086Y-78527196D01*
X129100500Y-78456616D01*
X129100500Y-77543384D01*
X129094086Y-77472804D01*
X129059213Y-77360890D01*
X129055307Y-77303492D01*
X129077723Y-77250510D01*
X129121638Y-77213346D01*
X129177599Y-77200000D01*
X144822401Y-77200000D01*
X144878362Y-77213346D01*
G37*
%TD.AperFunction*%
M02*
