%TF.GenerationSoftware,KiCad,Pcbnew,(7.0.0-0)*%
%TF.CreationDate,2023-03-05T10:41:00+01:00*%
%TF.ProjectId,FancyLight,46616e63-794c-4696-9768-742e6b696361,A*%
%TF.SameCoordinates,Original*%
%TF.FileFunction,Legend,Bot*%
%TF.FilePolarity,Positive*%
%FSLAX46Y46*%
G04 Gerber Fmt 4.6, Leading zero omitted, Abs format (unit mm)*
G04 Created by KiCad (PCBNEW (7.0.0-0)) date 2023-03-05 10:41:00*
%MOMM*%
%LPD*%
G01*
G04 APERTURE LIST*
%ADD10C,0.150000*%
%ADD11C,0.120000*%
G04 APERTURE END LIST*
D10*
X141608029Y-84863829D02*
X141349210Y-83897903D01*
X141349210Y-83897903D02*
X141119228Y-83959527D01*
X141119228Y-83959527D02*
X140993563Y-84042498D01*
X140993563Y-84042498D02*
X140926220Y-84159140D01*
X140926220Y-84159140D02*
X140904873Y-84263458D01*
X140904873Y-84263458D02*
X140908175Y-84459768D01*
X140908175Y-84459768D02*
X140945149Y-84597758D01*
X140945149Y-84597758D02*
X141040445Y-84769419D01*
X141040445Y-84769419D02*
X141111091Y-84849087D01*
X141111091Y-84849087D02*
X141227733Y-84916431D01*
X141227733Y-84916431D02*
X141378047Y-84925453D01*
X141378047Y-84925453D02*
X141608029Y-84863829D01*
X140136143Y-85258220D02*
X140688100Y-85110324D01*
X140412121Y-85184272D02*
X140153302Y-84218346D01*
X140153302Y-84218346D02*
X140282269Y-84331686D01*
X140282269Y-84331686D02*
X140398912Y-84399030D01*
X140398912Y-84399030D02*
X140503229Y-84420377D01*
X140938094Y-90067380D02*
X140938094Y-89067380D01*
X140938094Y-89067380D02*
X140699999Y-89067380D01*
X140699999Y-89067380D02*
X140557142Y-89115000D01*
X140557142Y-89115000D02*
X140461904Y-89210238D01*
X140461904Y-89210238D02*
X140414285Y-89305476D01*
X140414285Y-89305476D02*
X140366666Y-89495952D01*
X140366666Y-89495952D02*
X140366666Y-89638809D01*
X140366666Y-89638809D02*
X140414285Y-89829285D01*
X140414285Y-89829285D02*
X140461904Y-89924523D01*
X140461904Y-89924523D02*
X140557142Y-90019761D01*
X140557142Y-90019761D02*
X140699999Y-90067380D01*
X140699999Y-90067380D02*
X140938094Y-90067380D01*
X139985713Y-89162619D02*
X139938094Y-89115000D01*
X139938094Y-89115000D02*
X139842856Y-89067380D01*
X139842856Y-89067380D02*
X139604761Y-89067380D01*
X139604761Y-89067380D02*
X139509523Y-89115000D01*
X139509523Y-89115000D02*
X139461904Y-89162619D01*
X139461904Y-89162619D02*
X139414285Y-89257857D01*
X139414285Y-89257857D02*
X139414285Y-89353095D01*
X139414285Y-89353095D02*
X139461904Y-89495952D01*
X139461904Y-89495952D02*
X140033332Y-90067380D01*
X140033332Y-90067380D02*
X139414285Y-90067380D01*
X133617859Y-85045895D02*
X133876678Y-84079969D01*
X133876678Y-84079969D02*
X133646696Y-84018346D01*
X133646696Y-84018346D02*
X133496382Y-84027368D01*
X133496382Y-84027368D02*
X133379739Y-84094712D01*
X133379739Y-84094712D02*
X133309093Y-84174380D01*
X133309093Y-84174380D02*
X133213798Y-84346041D01*
X133213798Y-84346041D02*
X133176824Y-84484030D01*
X133176824Y-84484030D02*
X133173522Y-84680341D01*
X133173522Y-84680341D02*
X133194869Y-84784659D01*
X133194869Y-84784659D02*
X133262212Y-84901301D01*
X133262212Y-84901301D02*
X133387877Y-84984272D01*
X133387877Y-84984272D02*
X133617859Y-85045895D01*
X133002745Y-83845800D02*
X132404791Y-83685578D01*
X132404791Y-83685578D02*
X132628169Y-84139823D01*
X132628169Y-84139823D02*
X132490179Y-84102849D01*
X132490179Y-84102849D02*
X132385862Y-84124196D01*
X132385862Y-84124196D02*
X132327540Y-84157868D01*
X132327540Y-84157868D02*
X132256895Y-84237536D01*
X132256895Y-84237536D02*
X132195271Y-84467518D01*
X132195271Y-84467518D02*
X132216618Y-84571836D01*
X132216618Y-84571836D02*
X132250290Y-84630157D01*
X132250290Y-84630157D02*
X132329958Y-84700803D01*
X132329958Y-84700803D02*
X132605937Y-84774751D01*
X132605937Y-84774751D02*
X132710254Y-84753404D01*
X132710254Y-84753404D02*
X132768576Y-84719733D01*
X141417859Y-83245895D02*
X141676678Y-82279969D01*
X141676678Y-82279969D02*
X141446696Y-82218346D01*
X141446696Y-82218346D02*
X141296382Y-82227368D01*
X141296382Y-82227368D02*
X141179739Y-82294712D01*
X141179739Y-82294712D02*
X141109093Y-82374380D01*
X141109093Y-82374380D02*
X141013798Y-82546041D01*
X141013798Y-82546041D02*
X140976824Y-82684030D01*
X140976824Y-82684030D02*
X140973522Y-82880341D01*
X140973522Y-82880341D02*
X140994869Y-82984659D01*
X140994869Y-82984659D02*
X141062212Y-83101301D01*
X141062212Y-83101301D02*
X141187877Y-83184272D01*
X141187877Y-83184272D02*
X141417859Y-83245895D01*
X140210511Y-82232203D02*
X140037965Y-82876154D01*
X140539091Y-81925855D02*
X140584203Y-82677426D01*
X140584203Y-82677426D02*
X139986249Y-82517204D01*
X140838094Y-77967380D02*
X140838094Y-76967380D01*
X140838094Y-76967380D02*
X140599999Y-76967380D01*
X140599999Y-76967380D02*
X140457142Y-77015000D01*
X140457142Y-77015000D02*
X140361904Y-77110238D01*
X140361904Y-77110238D02*
X140314285Y-77205476D01*
X140314285Y-77205476D02*
X140266666Y-77395952D01*
X140266666Y-77395952D02*
X140266666Y-77538809D01*
X140266666Y-77538809D02*
X140314285Y-77729285D01*
X140314285Y-77729285D02*
X140361904Y-77824523D01*
X140361904Y-77824523D02*
X140457142Y-77919761D01*
X140457142Y-77919761D02*
X140599999Y-77967380D01*
X140599999Y-77967380D02*
X140838094Y-77967380D01*
X139361904Y-76967380D02*
X139838094Y-76967380D01*
X139838094Y-76967380D02*
X139885713Y-77443571D01*
X139885713Y-77443571D02*
X139838094Y-77395952D01*
X139838094Y-77395952D02*
X139742856Y-77348333D01*
X139742856Y-77348333D02*
X139504761Y-77348333D01*
X139504761Y-77348333D02*
X139409523Y-77395952D01*
X139409523Y-77395952D02*
X139361904Y-77443571D01*
X139361904Y-77443571D02*
X139314285Y-77538809D01*
X139314285Y-77538809D02*
X139314285Y-77776904D01*
X139314285Y-77776904D02*
X139361904Y-77872142D01*
X139361904Y-77872142D02*
X139409523Y-77919761D01*
X139409523Y-77919761D02*
X139504761Y-77967380D01*
X139504761Y-77967380D02*
X139742856Y-77967380D01*
X139742856Y-77967380D02*
X139838094Y-77919761D01*
X139838094Y-77919761D02*
X139885713Y-77872142D01*
X133908029Y-82863829D02*
X133649210Y-81897903D01*
X133649210Y-81897903D02*
X133419228Y-81959527D01*
X133419228Y-81959527D02*
X133293563Y-82042498D01*
X133293563Y-82042498D02*
X133226220Y-82159140D01*
X133226220Y-82159140D02*
X133204873Y-82263458D01*
X133204873Y-82263458D02*
X133208175Y-82459768D01*
X133208175Y-82459768D02*
X133245149Y-82597758D01*
X133245149Y-82597758D02*
X133340445Y-82769419D01*
X133340445Y-82769419D02*
X133411091Y-82849087D01*
X133411091Y-82849087D02*
X133527733Y-82916431D01*
X133527733Y-82916431D02*
X133678047Y-82925453D01*
X133678047Y-82925453D02*
X133908029Y-82863829D01*
X132269316Y-82267645D02*
X132453302Y-82218346D01*
X132453302Y-82218346D02*
X132557620Y-82239693D01*
X132557620Y-82239693D02*
X132615941Y-82273365D01*
X132615941Y-82273365D02*
X132744908Y-82386705D01*
X132744908Y-82386705D02*
X132840204Y-82558366D01*
X132840204Y-82558366D02*
X132938801Y-82926338D01*
X132938801Y-82926338D02*
X132917454Y-83030655D01*
X132917454Y-83030655D02*
X132883782Y-83088977D01*
X132883782Y-83088977D02*
X132804114Y-83159622D01*
X132804114Y-83159622D02*
X132620128Y-83208921D01*
X132620128Y-83208921D02*
X132515811Y-83187574D01*
X132515811Y-83187574D02*
X132457490Y-83153903D01*
X132457490Y-83153903D02*
X132386844Y-83074234D01*
X132386844Y-83074234D02*
X132325220Y-82844252D01*
X132325220Y-82844252D02*
X132346567Y-82739934D01*
X132346567Y-82739934D02*
X132380239Y-82681613D01*
X132380239Y-82681613D02*
X132459907Y-82610967D01*
X132459907Y-82610967D02*
X132643893Y-82561668D01*
X132643893Y-82561668D02*
X132748211Y-82583015D01*
X132748211Y-82583015D02*
X132806532Y-82616687D01*
X132806532Y-82616687D02*
X132877178Y-82696355D01*
D11*
X141927105Y-89154932D02*
X141127354Y-86170221D01*
X146888238Y-86226577D02*
G75*
G03*
X141127398Y-86170386I-2888238J-773423D01*
G01*
X141927061Y-89154768D02*
G75*
G03*
X146887999Y-86225685I2072939J2154768D01*
G01*
X146500001Y-87000000D02*
G75*
G03*
X146500001Y-87000000I-2500001J0D01*
G01*
X134440000Y-88545000D02*
X134440000Y-85455000D01*
X139989999Y-87000462D02*
G75*
G03*
X134440001Y-85455170I-2989999J462D01*
G01*
X134440000Y-88544830D02*
G75*
G03*
X139990000Y-86999538I2560000J1544830D01*
G01*
X139500000Y-87000000D02*
G75*
G03*
X139500000Y-87000000I-2500000J0D01*
G01*
X127127354Y-87829779D02*
X127927105Y-84845068D01*
X132887999Y-87774315D02*
G75*
G03*
X127927061Y-84845232I-2887999J774315D01*
G01*
X127127398Y-87829614D02*
G75*
G03*
X132888238Y-87773423I2872602J829614D01*
G01*
X132500001Y-87000000D02*
G75*
G03*
X132500001Y-87000000I-2500001J0D01*
G01*
X141127354Y-80829779D02*
X141927105Y-77845068D01*
X146887999Y-80774315D02*
G75*
G03*
X141927061Y-77845232I-2887999J774315D01*
G01*
X141127398Y-80829614D02*
G75*
G03*
X146888238Y-80773423I2872602J829614D01*
G01*
X146500001Y-80000000D02*
G75*
G03*
X146500001Y-80000000I-2500001J0D01*
G01*
X134440000Y-81545000D02*
X134440000Y-78455000D01*
X139989999Y-80000462D02*
G75*
G03*
X134440001Y-78455170I-2989999J462D01*
G01*
X134440000Y-81544830D02*
G75*
G03*
X139990000Y-79999538I2560000J1544830D01*
G01*
X139500000Y-80000000D02*
G75*
G03*
X139500000Y-80000000I-2500000J0D01*
G01*
X127927105Y-82154932D02*
X127127354Y-79170221D01*
X132888238Y-79226577D02*
G75*
G03*
X127127398Y-79170386I-2888238J-773423D01*
G01*
X127927061Y-82154768D02*
G75*
G03*
X132887999Y-79225685I2072939J2154768D01*
G01*
X132500001Y-80000000D02*
G75*
G03*
X132500001Y-80000000I-2500001J0D01*
G01*
M02*
