%TF.GenerationSoftware,KiCad,Pcbnew,(7.0.0-0)*%
%TF.CreationDate,2023-03-05T10:40:59+01:00*%
%TF.ProjectId,FancyLight,46616e63-794c-4696-9768-742e6b696361,A*%
%TF.SameCoordinates,Original*%
%TF.FileFunction,Copper,L1,Top*%
%TF.FilePolarity,Positive*%
%FSLAX46Y46*%
G04 Gerber Fmt 4.6, Leading zero omitted, Abs format (unit mm)*
G04 Created by KiCad (PCBNEW (7.0.0-0)) date 2023-03-05 10:40:59*
%MOMM*%
%LPD*%
G01*
G04 APERTURE LIST*
G04 Aperture macros list*
%AMRoundRect*
0 Rectangle with rounded corners*
0 $1 Rounding radius*
0 $2 $3 $4 $5 $6 $7 $8 $9 X,Y pos of 4 corners*
0 Add a 4 corners polygon primitive as box body*
4,1,4,$2,$3,$4,$5,$6,$7,$8,$9,$2,$3,0*
0 Add four circle primitives for the rounded corners*
1,1,$1+$1,$2,$3*
1,1,$1+$1,$4,$5*
1,1,$1+$1,$6,$7*
1,1,$1+$1,$8,$9*
0 Add four rect primitives between the rounded corners*
20,1,$1+$1,$2,$3,$4,$5,0*
20,1,$1+$1,$4,$5,$6,$7,0*
20,1,$1+$1,$6,$7,$8,$9,0*
20,1,$1+$1,$8,$9,$2,$3,0*%
%AMRotRect*
0 Rectangle, with rotation*
0 The origin of the aperture is its center*
0 $1 length*
0 $2 width*
0 $3 Rotation angle, in degrees counterclockwise*
0 Add horizontal line*
21,1,$1,$2,0,0,$3*%
G04 Aperture macros list end*
%TA.AperFunction,SMDPad,CuDef*%
%ADD10RoundRect,0.243750X-0.456250X0.243750X-0.456250X-0.243750X0.456250X-0.243750X0.456250X0.243750X0*%
%TD*%
%TA.AperFunction,SMDPad,CuDef*%
%ADD11R,2.500000X1.800000*%
%TD*%
%TA.AperFunction,SMDPad,CuDef*%
%ADD12R,0.900000X0.800000*%
%TD*%
%TA.AperFunction,SMDPad,CuDef*%
%ADD13RoundRect,0.243750X0.456250X-0.243750X0.456250X0.243750X-0.456250X0.243750X-0.456250X-0.243750X0*%
%TD*%
%TA.AperFunction,ComponentPad*%
%ADD14RoundRect,0.400000X-0.400000X-0.400000X0.400000X-0.400000X0.400000X0.400000X-0.400000X0.400000X0*%
%TD*%
%TA.AperFunction,ComponentPad*%
%ADD15RotRect,1.800000X1.800000X15.000000*%
%TD*%
%TA.AperFunction,ComponentPad*%
%ADD16C,1.800000*%
%TD*%
%TA.AperFunction,ComponentPad*%
%ADD17R,1.800000X1.800000*%
%TD*%
%TA.AperFunction,ComponentPad*%
%ADD18RotRect,1.800000X1.800000X345.000000*%
%TD*%
%TA.AperFunction,ViaPad*%
%ADD19C,0.800000*%
%TD*%
%TA.AperFunction,Conductor*%
%ADD20C,0.400000*%
%TD*%
%TA.AperFunction,Conductor*%
%ADD21C,1.000000*%
%TD*%
G04 APERTURE END LIST*
D10*
X133500000Y-79062500D03*
X133500000Y-80937500D03*
D11*
X140499999Y-83499999D03*
X144499999Y-83499999D03*
D12*
X131499999Y-84449999D03*
X131499999Y-82549999D03*
X129499999Y-83499999D03*
D13*
X140500000Y-87937500D03*
X140500000Y-86062500D03*
D10*
X140500000Y-79062500D03*
X140500000Y-80937500D03*
D13*
X133500000Y-84437500D03*
X133500000Y-82562500D03*
D10*
X133500000Y-86062500D03*
X133500000Y-87937500D03*
D12*
X135499999Y-82549999D03*
X135499999Y-84449999D03*
X137499999Y-83499999D03*
D14*
X146000000Y-89000000D03*
X128000000Y-89000000D03*
X128000000Y-78000000D03*
X146000000Y-78000000D03*
D15*
X142773273Y-87328699D03*
D16*
X145226726Y-86671300D03*
D17*
X135729999Y-86999999D03*
D16*
X138270000Y-87000000D03*
D18*
X128773273Y-86671299D03*
D16*
X131226726Y-87328700D03*
D18*
X142773273Y-79671299D03*
D16*
X145226726Y-80328700D03*
D17*
X135729999Y-79999999D03*
D16*
X138270000Y-80000000D03*
D15*
X128773273Y-80328699D03*
D16*
X131226726Y-79671300D03*
D19*
X139000000Y-85000000D03*
X136500000Y-85000000D03*
X134500000Y-81500000D03*
X132500000Y-81500000D03*
X139000000Y-82000000D03*
D20*
X135500000Y-84450000D02*
X135950000Y-84450000D01*
X140500000Y-83500000D02*
X139000000Y-85000000D01*
X133062500Y-80937500D02*
X132500000Y-81500000D01*
X133937500Y-80937500D02*
X134500000Y-81500000D01*
X133500000Y-80937500D02*
X133937500Y-80937500D01*
X140500000Y-83500000D02*
X139000000Y-82000000D01*
X133500000Y-84437500D02*
X135487500Y-84437500D01*
X135950000Y-84450000D02*
X136500000Y-85000000D01*
X133500000Y-80937500D02*
X133062500Y-80937500D01*
X135487500Y-84437500D02*
X135500000Y-84450000D01*
X140500000Y-87937500D02*
X142164474Y-87937500D01*
X142164474Y-87937500D02*
X142773274Y-87328700D01*
X131270000Y-87000000D02*
X135730000Y-87000000D01*
X140500000Y-86062500D02*
X139562500Y-87000000D01*
X138270000Y-87000000D02*
X139562500Y-87000000D01*
X129500000Y-85944573D02*
X129500000Y-83500000D01*
X129500000Y-81055426D02*
X128773274Y-80328700D01*
X129500000Y-83500000D02*
X129500000Y-81055426D01*
X128773273Y-86671300D02*
X129500000Y-85944573D01*
X140500000Y-79062500D02*
X142164474Y-79062500D01*
X142164474Y-79062500D02*
X142773274Y-79671300D01*
X131567926Y-80012500D02*
X131226726Y-79671300D01*
X135717500Y-80012500D02*
X131567926Y-80012500D01*
X135730000Y-80000000D02*
X135717500Y-80012500D01*
X139562500Y-80000000D02*
X140500000Y-80937500D01*
X138270000Y-80000000D02*
X139562500Y-80000000D01*
X131500000Y-84450000D02*
X133112500Y-86062500D01*
X133112500Y-86062500D02*
X133500000Y-86062500D01*
X132450000Y-83500000D02*
X131500000Y-84450000D01*
X137500000Y-83500000D02*
X132450000Y-83500000D01*
X131500000Y-82550000D02*
X135500000Y-82550000D01*
D21*
X144500000Y-85944574D02*
X144500000Y-83500000D01*
X128000000Y-78000000D02*
X130000000Y-78000000D01*
X146000000Y-79555426D02*
X145226726Y-80328700D01*
X144500000Y-81055426D02*
X144500000Y-83500000D01*
X145226726Y-86671300D02*
X144500000Y-85944574D01*
X146000000Y-78000000D02*
X144100000Y-78000000D01*
X145226726Y-80328700D02*
X144500000Y-81055426D01*
X146000000Y-78000000D02*
X146000000Y-79555426D01*
%TA.AperFunction,Conductor*%
G36*
X144668676Y-77212788D02*
G01*
X144712208Y-77248513D01*
X144735449Y-77299809D01*
X144733607Y-77356093D01*
X144707656Y-77452942D01*
X144705738Y-77464101D01*
X144700191Y-77534583D01*
X144700000Y-77539463D01*
X144700000Y-77783674D01*
X144703450Y-77796549D01*
X144716326Y-77800000D01*
X146076000Y-77800000D01*
X146138000Y-77816613D01*
X146183387Y-77862000D01*
X146200000Y-77924000D01*
X146200000Y-78076000D01*
X146183387Y-78138000D01*
X146138000Y-78183387D01*
X146076000Y-78200000D01*
X144716326Y-78200000D01*
X144703450Y-78203450D01*
X144700000Y-78216326D01*
X144700000Y-78460537D01*
X144700191Y-78465416D01*
X144705738Y-78535898D01*
X144707656Y-78547057D01*
X144753469Y-78718036D01*
X144758097Y-78730092D01*
X144814394Y-78840581D01*
X144827299Y-78909157D01*
X144801130Y-78973844D01*
X144744173Y-79014157D01*
X144719217Y-79022724D01*
X144709796Y-79028515D01*
X144713096Y-79039066D01*
X145291769Y-80041358D01*
X145301193Y-80050782D01*
X145314070Y-80047331D01*
X146318343Y-79467513D01*
X146327222Y-79459282D01*
X146325340Y-79433304D01*
X146327325Y-79433160D01*
X146324820Y-79423703D01*
X146341532Y-79361829D01*
X146386906Y-79316563D01*
X146448820Y-79300000D01*
X146460537Y-79300000D01*
X146465416Y-79299808D01*
X146535898Y-79294261D01*
X146547057Y-79292343D01*
X146643907Y-79266393D01*
X146700191Y-79264551D01*
X146751487Y-79287792D01*
X146787212Y-79331324D01*
X146800000Y-79386168D01*
X146800000Y-79843647D01*
X146785858Y-79901155D01*
X146746658Y-79945546D01*
X146691341Y-79966694D01*
X146632524Y-79959776D01*
X146583625Y-79926368D01*
X146559920Y-79881839D01*
X146558333Y-79882385D01*
X146553352Y-79867876D01*
X146534417Y-79824710D01*
X146525614Y-79814121D01*
X146512251Y-79817440D01*
X145514067Y-80393742D01*
X145504642Y-80403167D01*
X145508093Y-80416044D01*
X146083874Y-81413325D01*
X146093898Y-81422899D01*
X146106789Y-81417800D01*
X146174128Y-81365388D01*
X146181638Y-81358475D01*
X146331839Y-81195314D01*
X146338110Y-81187257D01*
X146459406Y-81001598D01*
X146464268Y-80992615D01*
X146553347Y-80789533D01*
X146558333Y-80775013D01*
X146559921Y-80775558D01*
X146583625Y-80731032D01*
X146632524Y-80697624D01*
X146691341Y-80690706D01*
X146746658Y-80711854D01*
X146785858Y-80756245D01*
X146800000Y-80813753D01*
X146800000Y-86186247D01*
X146785858Y-86243755D01*
X146746658Y-86288146D01*
X146691341Y-86309294D01*
X146632524Y-86302376D01*
X146583625Y-86268968D01*
X146559921Y-86224441D01*
X146558333Y-86224987D01*
X146553347Y-86210466D01*
X146464268Y-86007384D01*
X146459406Y-85998401D01*
X146338110Y-85812742D01*
X146331839Y-85804685D01*
X146181638Y-85641524D01*
X146174127Y-85634610D01*
X146106789Y-85582197D01*
X146093898Y-85577099D01*
X146083874Y-85586673D01*
X145508093Y-86583954D01*
X145504642Y-86596831D01*
X145514067Y-86606256D01*
X146512251Y-87182558D01*
X146525615Y-87185877D01*
X146534418Y-87175288D01*
X146553344Y-87132142D01*
X146558334Y-87117609D01*
X146559923Y-87118154D01*
X146583625Y-87073632D01*
X146632524Y-87040224D01*
X146691341Y-87033306D01*
X146746658Y-87054454D01*
X146785858Y-87098845D01*
X146800000Y-87156353D01*
X146800000Y-87822401D01*
X146786654Y-87878362D01*
X146749490Y-87922277D01*
X146696508Y-87944693D01*
X146639110Y-87940787D01*
X146533457Y-87907865D01*
X146527196Y-87905914D01*
X146520662Y-87905320D01*
X146520661Y-87905320D01*
X146459425Y-87899755D01*
X146459419Y-87899754D01*
X146456616Y-87899500D01*
X146281667Y-87899500D01*
X146226288Y-87886446D01*
X146182568Y-87850034D01*
X146159712Y-87797929D01*
X146162534Y-87741102D01*
X146190437Y-87691517D01*
X146320976Y-87549713D01*
X146326508Y-87540054D01*
X146318343Y-87532485D01*
X145314070Y-86952667D01*
X145301193Y-86949216D01*
X145291769Y-86958640D01*
X144713096Y-87960932D01*
X144709796Y-87971483D01*
X144719215Y-87977273D01*
X144877016Y-88031446D01*
X144886928Y-88033956D01*
X144921698Y-88039758D01*
X144976593Y-88063550D01*
X145013958Y-88110277D01*
X145025094Y-88169061D01*
X145007408Y-88226216D01*
X144960402Y-88303973D01*
X144960397Y-88303983D01*
X144956522Y-88310394D01*
X144954292Y-88317548D01*
X144954292Y-88317550D01*
X144907864Y-88466542D01*
X144907861Y-88466553D01*
X144905914Y-88472804D01*
X144905320Y-88479335D01*
X144905320Y-88479338D01*
X144900885Y-88528147D01*
X144899500Y-88543384D01*
X144899500Y-89456616D01*
X144905914Y-89527196D01*
X144907865Y-89533457D01*
X144940787Y-89639110D01*
X144944693Y-89696508D01*
X144922277Y-89749490D01*
X144878362Y-89786654D01*
X144822401Y-89800000D01*
X129177599Y-89800000D01*
X129121638Y-89786654D01*
X129077723Y-89749490D01*
X129055307Y-89696508D01*
X129059213Y-89639110D01*
X129062687Y-89627958D01*
X129094086Y-89527196D01*
X129100500Y-89456616D01*
X129100500Y-88543384D01*
X129094086Y-88472804D01*
X129084676Y-88442607D01*
X129072935Y-88404928D01*
X129043478Y-88310394D01*
X128969257Y-88187619D01*
X128951666Y-88131954D01*
X128961494Y-88074407D01*
X128996565Y-88027736D01*
X129049106Y-88002285D01*
X129107466Y-88003694D01*
X129375231Y-88075442D01*
X129400256Y-88079130D01*
X129511273Y-88061898D01*
X129608568Y-88005724D01*
X129679000Y-87918197D01*
X129688319Y-87894682D01*
X129795225Y-87495701D01*
X129830339Y-87437194D01*
X129891089Y-87406122D01*
X129959080Y-87411894D01*
X130013723Y-87452763D01*
X130038471Y-87516352D01*
X130040667Y-87540054D01*
X130041611Y-87550236D01*
X130043180Y-87555750D01*
X130100927Y-87758713D01*
X130100930Y-87758721D01*
X130102497Y-87764228D01*
X130105049Y-87769353D01*
X130105051Y-87769358D01*
X130199113Y-87958259D01*
X130199115Y-87958263D01*
X130201668Y-87963389D01*
X130205117Y-87967956D01*
X130205120Y-87967961D01*
X130332287Y-88136358D01*
X130332292Y-88136363D01*
X130335745Y-88140936D01*
X130339981Y-88144797D01*
X130339985Y-88144802D01*
X130438298Y-88234426D01*
X130500164Y-88290824D01*
X130689325Y-88407947D01*
X130896786Y-88488318D01*
X131115483Y-88529200D01*
X131332240Y-88529200D01*
X131337969Y-88529200D01*
X131556666Y-88488318D01*
X131764127Y-88407947D01*
X131953288Y-88290824D01*
X132094187Y-88162376D01*
X132154653Y-88132179D01*
X132221974Y-88138178D01*
X132276149Y-88178590D01*
X132301083Y-88241411D01*
X132309718Y-88325935D01*
X132312537Y-88339102D01*
X132362823Y-88490857D01*
X132368885Y-88503856D01*
X132452576Y-88639540D01*
X132461480Y-88650801D01*
X132574198Y-88763519D01*
X132585459Y-88772423D01*
X132721143Y-88856114D01*
X132734142Y-88862176D01*
X132885897Y-88912462D01*
X132899064Y-88915281D01*
X132991062Y-88924680D01*
X132997339Y-88925000D01*
X133283674Y-88925000D01*
X133296549Y-88921549D01*
X133300000Y-88908674D01*
X133300000Y-87861500D01*
X133316613Y-87799500D01*
X133362000Y-87754113D01*
X133424000Y-87737500D01*
X133576000Y-87737500D01*
X133638000Y-87754113D01*
X133683387Y-87799500D01*
X133700000Y-87861500D01*
X133700000Y-88908674D01*
X133703450Y-88921549D01*
X133716326Y-88925000D01*
X134002661Y-88925000D01*
X134008937Y-88924680D01*
X134100935Y-88915281D01*
X134114102Y-88912462D01*
X134265857Y-88862176D01*
X134278856Y-88856114D01*
X134414540Y-88772423D01*
X134425801Y-88763519D01*
X134538519Y-88650801D01*
X134547423Y-88639540D01*
X134631114Y-88503856D01*
X134637176Y-88490857D01*
X134687462Y-88339102D01*
X134690281Y-88325933D01*
X134691715Y-88311900D01*
X134712137Y-88255361D01*
X134756751Y-88215071D01*
X134815069Y-88200499D01*
X136674864Y-88200499D01*
X136699991Y-88197585D01*
X136802765Y-88152206D01*
X136882206Y-88072765D01*
X136927585Y-87969991D01*
X136930500Y-87944865D01*
X136930499Y-87530417D01*
X136947884Y-87467102D01*
X136995163Y-87421538D01*
X137059080Y-87406505D01*
X137121713Y-87426217D01*
X137165499Y-87475148D01*
X137242387Y-87629559D01*
X137242389Y-87629563D01*
X137244942Y-87634689D01*
X137248391Y-87639256D01*
X137248394Y-87639261D01*
X137375561Y-87807658D01*
X137375566Y-87807663D01*
X137379019Y-87812236D01*
X137383255Y-87816097D01*
X137383259Y-87816102D01*
X137479007Y-87903387D01*
X137543438Y-87962124D01*
X137732599Y-88079247D01*
X137940060Y-88159618D01*
X138158757Y-88200500D01*
X138375514Y-88200500D01*
X138381243Y-88200500D01*
X138599940Y-88159618D01*
X138807401Y-88079247D01*
X138996562Y-87962124D01*
X139160981Y-87812236D01*
X139257761Y-87684078D01*
X139276546Y-87659203D01*
X139324368Y-87620963D01*
X139384658Y-87610269D01*
X139442715Y-87629727D01*
X139484382Y-87674595D01*
X139499500Y-87733930D01*
X139499500Y-88223860D01*
X139499940Y-88227527D01*
X139499941Y-88227537D01*
X139507904Y-88293840D01*
X139510003Y-88311321D01*
X139512918Y-88318714D01*
X139512919Y-88318716D01*
X139559959Y-88438000D01*
X139564889Y-88450500D01*
X139655289Y-88569711D01*
X139774500Y-88660111D01*
X139913679Y-88714997D01*
X140001140Y-88725500D01*
X140995160Y-88725500D01*
X140998860Y-88725500D01*
X141086321Y-88714997D01*
X141225500Y-88660111D01*
X141344711Y-88569711D01*
X141407376Y-88487073D01*
X141451019Y-88450944D01*
X141506179Y-88438000D01*
X141732513Y-88438000D01*
X141784917Y-88449618D01*
X141827502Y-88482294D01*
X141852287Y-88529905D01*
X141857301Y-88548617D01*
X141857305Y-88548630D01*
X141858230Y-88552081D01*
X141867548Y-88575597D01*
X141873393Y-88582860D01*
X141873395Y-88582864D01*
X141919002Y-88639540D01*
X141937980Y-88663124D01*
X142035275Y-88719298D01*
X142146292Y-88736530D01*
X142171317Y-88732843D01*
X143996655Y-88243744D01*
X144020171Y-88234426D01*
X144107698Y-88163994D01*
X144163872Y-88066699D01*
X144181104Y-87955682D01*
X144177417Y-87930657D01*
X144170110Y-87903386D01*
X144171079Y-87835774D01*
X144207378Y-87778724D01*
X144268211Y-87749200D01*
X144335490Y-87755982D01*
X144359552Y-87765499D01*
X144369576Y-87755925D01*
X144945357Y-86758644D01*
X144948808Y-86745767D01*
X144939383Y-86736342D01*
X143941199Y-86160040D01*
X143927835Y-86156721D01*
X143910249Y-86177877D01*
X143855157Y-86215890D01*
X143788332Y-86219731D01*
X143729248Y-86188279D01*
X143695119Y-86130702D01*
X143688318Y-86105319D01*
X143679000Y-86081803D01*
X143657541Y-86055136D01*
X143615773Y-86003230D01*
X143608568Y-85994276D01*
X143598617Y-85988530D01*
X143598615Y-85988529D01*
X143561999Y-85967389D01*
X143516613Y-85922002D01*
X143500000Y-85860002D01*
X143500000Y-85802545D01*
X144126943Y-85802545D01*
X144135107Y-85810113D01*
X145139380Y-86389931D01*
X145152257Y-86393382D01*
X145161681Y-86383958D01*
X145740354Y-85381666D01*
X145743654Y-85371116D01*
X145734232Y-85365324D01*
X145576440Y-85311155D01*
X145566523Y-85308643D01*
X145347796Y-85272144D01*
X145337599Y-85271300D01*
X145115853Y-85271300D01*
X145105655Y-85272144D01*
X144886925Y-85308644D01*
X144877016Y-85311153D01*
X144667273Y-85383158D01*
X144657920Y-85387260D01*
X144462880Y-85492811D01*
X144454328Y-85498398D01*
X144279323Y-85634611D01*
X144271810Y-85641527D01*
X144132477Y-85792882D01*
X144126943Y-85802545D01*
X143500000Y-85802545D01*
X143500000Y-85024000D01*
X143516613Y-84962000D01*
X143562000Y-84916613D01*
X143624000Y-84900000D01*
X144283674Y-84900000D01*
X144296549Y-84896549D01*
X144300000Y-84883674D01*
X144700000Y-84883674D01*
X144703450Y-84896549D01*
X144716326Y-84900000D01*
X145794518Y-84900000D01*
X145801114Y-84899646D01*
X145849667Y-84894426D01*
X145864641Y-84890888D01*
X145983777Y-84846452D01*
X145999189Y-84838037D01*
X146100092Y-84762501D01*
X146112501Y-84750092D01*
X146188037Y-84649189D01*
X146196452Y-84633777D01*
X146240888Y-84514641D01*
X146244426Y-84499667D01*
X146249646Y-84451114D01*
X146250000Y-84444518D01*
X146250000Y-83716326D01*
X146246549Y-83703450D01*
X146233674Y-83700000D01*
X144716326Y-83700000D01*
X144703450Y-83703450D01*
X144700000Y-83716326D01*
X144700000Y-84883674D01*
X144300000Y-84883674D01*
X144300000Y-83283674D01*
X144700000Y-83283674D01*
X144703450Y-83296549D01*
X144716326Y-83300000D01*
X146233674Y-83300000D01*
X146246549Y-83296549D01*
X146250000Y-83283674D01*
X146250000Y-82555482D01*
X146249646Y-82548885D01*
X146244426Y-82500332D01*
X146240888Y-82485358D01*
X146196452Y-82366222D01*
X146188037Y-82350810D01*
X146112501Y-82249907D01*
X146100092Y-82237498D01*
X145999189Y-82161962D01*
X145983777Y-82153547D01*
X145864641Y-82109111D01*
X145849667Y-82105573D01*
X145801114Y-82100353D01*
X145794518Y-82100000D01*
X144716326Y-82100000D01*
X144703450Y-82103450D01*
X144700000Y-82116326D01*
X144700000Y-83283674D01*
X144300000Y-83283674D01*
X144300000Y-82116326D01*
X144296549Y-82103450D01*
X144283674Y-82100000D01*
X143624000Y-82100000D01*
X143562000Y-82083387D01*
X143516613Y-82038000D01*
X143500000Y-81976000D01*
X143500000Y-81197454D01*
X144126942Y-81197454D01*
X144132475Y-81207114D01*
X144271813Y-81358475D01*
X144279323Y-81365388D01*
X144454328Y-81501601D01*
X144462880Y-81507188D01*
X144657920Y-81612739D01*
X144667273Y-81616841D01*
X144877016Y-81688846D01*
X144886925Y-81691355D01*
X145105655Y-81727855D01*
X145115853Y-81728700D01*
X145337599Y-81728700D01*
X145347796Y-81727855D01*
X145566526Y-81691355D01*
X145576434Y-81688846D01*
X145734235Y-81634673D01*
X145743654Y-81628883D01*
X145740354Y-81618332D01*
X145161682Y-80616041D01*
X145152258Y-80606617D01*
X145139381Y-80610068D01*
X144135107Y-81189885D01*
X144126942Y-81197454D01*
X143500000Y-81197454D01*
X143500000Y-81139998D01*
X143516613Y-81077998D01*
X143561999Y-81032611D01*
X143564885Y-81030944D01*
X143608568Y-81005724D01*
X143679000Y-80918197D01*
X143688319Y-80894682D01*
X143695120Y-80869296D01*
X143729249Y-80811721D01*
X143788333Y-80780269D01*
X143855157Y-80784109D01*
X143910249Y-80822122D01*
X143927835Y-80843277D01*
X143941199Y-80839958D01*
X144939383Y-80263656D01*
X144948808Y-80254231D01*
X144945357Y-80241354D01*
X144369576Y-79244073D01*
X144359552Y-79234499D01*
X144335489Y-79244017D01*
X144268210Y-79250799D01*
X144207376Y-79221275D01*
X144171078Y-79164224D01*
X144170109Y-79096613D01*
X144177416Y-79069343D01*
X144181104Y-79044318D01*
X144163872Y-78933301D01*
X144123653Y-78863641D01*
X144113444Y-78845958D01*
X144113443Y-78845957D01*
X144107698Y-78836006D01*
X144070634Y-78806181D01*
X144027438Y-78771421D01*
X144027434Y-78771419D01*
X144020171Y-78765574D01*
X144011504Y-78762139D01*
X144011502Y-78762138D01*
X143999982Y-78757573D01*
X143999980Y-78757572D01*
X143996656Y-78756255D01*
X143993205Y-78755330D01*
X143993195Y-78755327D01*
X142174770Y-78268083D01*
X142174766Y-78268082D01*
X142171317Y-78267158D01*
X142167788Y-78266638D01*
X142167779Y-78266636D01*
X142155518Y-78264829D01*
X142155513Y-78264829D01*
X142146292Y-78263470D01*
X142137079Y-78264899D01*
X142137077Y-78264900D01*
X142046626Y-78278940D01*
X142046625Y-78278940D01*
X142035275Y-78280702D01*
X142025329Y-78286444D01*
X142025327Y-78286445D01*
X141947932Y-78331129D01*
X141947927Y-78331132D01*
X141937980Y-78336876D01*
X141930776Y-78345827D01*
X141930774Y-78345830D01*
X141873395Y-78417135D01*
X141873391Y-78417141D01*
X141867548Y-78424403D01*
X141864114Y-78433066D01*
X141864112Y-78433071D01*
X141859547Y-78444591D01*
X141858229Y-78447918D01*
X141857302Y-78451373D01*
X141857299Y-78451386D01*
X141852286Y-78470095D01*
X141827501Y-78517706D01*
X141784916Y-78550382D01*
X141732512Y-78562000D01*
X141506179Y-78562000D01*
X141451019Y-78549056D01*
X141407375Y-78512925D01*
X141406432Y-78511682D01*
X141344711Y-78430289D01*
X141225500Y-78339889D01*
X141217609Y-78336777D01*
X141217607Y-78336776D01*
X141093716Y-78287919D01*
X141093714Y-78287918D01*
X141086321Y-78285003D01*
X141078427Y-78284055D01*
X141002537Y-78274941D01*
X141002527Y-78274940D01*
X140998860Y-78274500D01*
X140001140Y-78274500D01*
X139997473Y-78274940D01*
X139997462Y-78274941D01*
X139921572Y-78284055D01*
X139921570Y-78284055D01*
X139913679Y-78285003D01*
X139906287Y-78287917D01*
X139906283Y-78287919D01*
X139782392Y-78336776D01*
X139782387Y-78336778D01*
X139774500Y-78339889D01*
X139767741Y-78345014D01*
X139767740Y-78345015D01*
X139662045Y-78425165D01*
X139662041Y-78425168D01*
X139655289Y-78430289D01*
X139650168Y-78437041D01*
X139650165Y-78437045D01*
X139570015Y-78542740D01*
X139564889Y-78549500D01*
X139561778Y-78557387D01*
X139561776Y-78557392D01*
X139512919Y-78681283D01*
X139512917Y-78681287D01*
X139510003Y-78688679D01*
X139509055Y-78696570D01*
X139509055Y-78696572D01*
X139499941Y-78772462D01*
X139499940Y-78772473D01*
X139499500Y-78776140D01*
X139499500Y-78779840D01*
X139499500Y-79266070D01*
X139484382Y-79325405D01*
X139442715Y-79370273D01*
X139384658Y-79389731D01*
X139324368Y-79379037D01*
X139276546Y-79340797D01*
X139164438Y-79192341D01*
X139164434Y-79192337D01*
X139160981Y-79187764D01*
X139156744Y-79183901D01*
X139156740Y-79183897D01*
X139011591Y-79051577D01*
X138996562Y-79037876D01*
X138991692Y-79034861D01*
X138991690Y-79034859D01*
X138814039Y-78924863D01*
X138807401Y-78920753D01*
X138777468Y-78909157D01*
X138605286Y-78842453D01*
X138605285Y-78842452D01*
X138599940Y-78840382D01*
X138594302Y-78839328D01*
X138386872Y-78800552D01*
X138386869Y-78800551D01*
X138381243Y-78799500D01*
X138158757Y-78799500D01*
X138153131Y-78800551D01*
X138153127Y-78800552D01*
X137945697Y-78839328D01*
X137945694Y-78839328D01*
X137940060Y-78840382D01*
X137934717Y-78842451D01*
X137934713Y-78842453D01*
X137737941Y-78918683D01*
X137737936Y-78918685D01*
X137732599Y-78920753D01*
X137727727Y-78923769D01*
X137727724Y-78923771D01*
X137548309Y-79034859D01*
X137548301Y-79034864D01*
X137543438Y-79037876D01*
X137539207Y-79041732D01*
X137539203Y-79041736D01*
X137383259Y-79183897D01*
X137383249Y-79183907D01*
X137379019Y-79187764D01*
X137375570Y-79192330D01*
X137375561Y-79192341D01*
X137248394Y-79360738D01*
X137248387Y-79360748D01*
X137244942Y-79365311D01*
X137242392Y-79370431D01*
X137242387Y-79370440D01*
X137165499Y-79524853D01*
X137121713Y-79573784D01*
X137059081Y-79593496D01*
X136995163Y-79578463D01*
X136947884Y-79532899D01*
X136930499Y-79469581D01*
X136930499Y-79058714D01*
X136930499Y-79055136D01*
X136927585Y-79030009D01*
X136882206Y-78927235D01*
X136802765Y-78847794D01*
X136759748Y-78828800D01*
X136708522Y-78806181D01*
X136708517Y-78806179D01*
X136699991Y-78802415D01*
X136690726Y-78801340D01*
X136678414Y-78799911D01*
X136678401Y-78799910D01*
X136674865Y-78799500D01*
X136671290Y-78799500D01*
X134815073Y-78799500D01*
X134756751Y-78784928D01*
X134712137Y-78744639D01*
X134691715Y-78688099D01*
X134690281Y-78674066D01*
X134687462Y-78660897D01*
X134637176Y-78509142D01*
X134631114Y-78496143D01*
X134547423Y-78360459D01*
X134538519Y-78349198D01*
X134425801Y-78236480D01*
X134414540Y-78227576D01*
X134278856Y-78143885D01*
X134265857Y-78137823D01*
X134114102Y-78087537D01*
X134100935Y-78084718D01*
X134008937Y-78075319D01*
X134002661Y-78075000D01*
X133716326Y-78075000D01*
X133703450Y-78078450D01*
X133700000Y-78091326D01*
X133700000Y-79138500D01*
X133683387Y-79200500D01*
X133638000Y-79245887D01*
X133576000Y-79262500D01*
X133424000Y-79262500D01*
X133362000Y-79245887D01*
X133316613Y-79200500D01*
X133300000Y-79138500D01*
X133300000Y-78091326D01*
X133296549Y-78078450D01*
X133283674Y-78075000D01*
X132997339Y-78075000D01*
X132991062Y-78075319D01*
X132899064Y-78084718D01*
X132885897Y-78087537D01*
X132734142Y-78137823D01*
X132721143Y-78143885D01*
X132585459Y-78227576D01*
X132574198Y-78236480D01*
X132461480Y-78349198D01*
X132452576Y-78360459D01*
X132368885Y-78496143D01*
X132362823Y-78509142D01*
X132312537Y-78660897D01*
X132309718Y-78674064D01*
X132301083Y-78758588D01*
X132276149Y-78821409D01*
X132221974Y-78861821D01*
X132154653Y-78867820D01*
X132094187Y-78837622D01*
X131957522Y-78713036D01*
X131957523Y-78713036D01*
X131953288Y-78709176D01*
X131948418Y-78706161D01*
X131948416Y-78706159D01*
X131769001Y-78595071D01*
X131769002Y-78595071D01*
X131764127Y-78592053D01*
X131686551Y-78562000D01*
X131562012Y-78513753D01*
X131562011Y-78513752D01*
X131556666Y-78511682D01*
X131551028Y-78510628D01*
X131343598Y-78471852D01*
X131343595Y-78471851D01*
X131337969Y-78470800D01*
X131115483Y-78470800D01*
X131109857Y-78471851D01*
X131109853Y-78471852D01*
X130902423Y-78510628D01*
X130902420Y-78510628D01*
X130896786Y-78511682D01*
X130891443Y-78513751D01*
X130891439Y-78513753D01*
X130694667Y-78589983D01*
X130694662Y-78589985D01*
X130689325Y-78592053D01*
X130684453Y-78595069D01*
X130684450Y-78595071D01*
X130505035Y-78706159D01*
X130505027Y-78706164D01*
X130500164Y-78709176D01*
X130495933Y-78713032D01*
X130495929Y-78713036D01*
X130339985Y-78855197D01*
X130339975Y-78855207D01*
X130335745Y-78859064D01*
X130332296Y-78863630D01*
X130332287Y-78863641D01*
X130205120Y-79032038D01*
X130205113Y-79032048D01*
X130201668Y-79036611D01*
X130199118Y-79041731D01*
X130199113Y-79041740D01*
X130105051Y-79230641D01*
X130105047Y-79230649D01*
X130102497Y-79235772D01*
X130100931Y-79241275D01*
X130100927Y-79241286D01*
X130049233Y-79422974D01*
X130041611Y-79449764D01*
X130041082Y-79455467D01*
X130041082Y-79455470D01*
X130038471Y-79483648D01*
X130013723Y-79547238D01*
X129959080Y-79588106D01*
X129891089Y-79593879D01*
X129830339Y-79562807D01*
X129795225Y-79504300D01*
X129777010Y-79436321D01*
X129688318Y-79105319D01*
X129679000Y-79081803D01*
X129666119Y-79065796D01*
X129615773Y-79003230D01*
X129608568Y-78994276D01*
X129598617Y-78988530D01*
X129598615Y-78988529D01*
X129521220Y-78943845D01*
X129511273Y-78938102D01*
X129435451Y-78926333D01*
X129409469Y-78922300D01*
X129409468Y-78922299D01*
X129400256Y-78920870D01*
X129391038Y-78922228D01*
X129391032Y-78922228D01*
X129378762Y-78924036D01*
X129378749Y-78924038D01*
X129375231Y-78924557D01*
X129371785Y-78925480D01*
X129368265Y-78926209D01*
X129367986Y-78924863D01*
X129318284Y-78926333D01*
X129266872Y-78902704D01*
X129231310Y-78858694D01*
X129219002Y-78803468D01*
X129232512Y-78748522D01*
X129241902Y-78730094D01*
X129246530Y-78718036D01*
X129292343Y-78547057D01*
X129294261Y-78535898D01*
X129299808Y-78465416D01*
X129300000Y-78460537D01*
X129300000Y-78216326D01*
X129296549Y-78203450D01*
X129283674Y-78200000D01*
X127924000Y-78200000D01*
X127862000Y-78183387D01*
X127816613Y-78138000D01*
X127800000Y-78076000D01*
X127800000Y-77924000D01*
X127816613Y-77862000D01*
X127862000Y-77816613D01*
X127924000Y-77800000D01*
X129283674Y-77800000D01*
X129296549Y-77796549D01*
X129300000Y-77783674D01*
X129300000Y-77539463D01*
X129299808Y-77534583D01*
X129294261Y-77464101D01*
X129292343Y-77452942D01*
X129266393Y-77356093D01*
X129264551Y-77299809D01*
X129287792Y-77248513D01*
X129331324Y-77212788D01*
X129386168Y-77200000D01*
X144613832Y-77200000D01*
X144668676Y-77212788D01*
G37*
%TD.AperFunction*%
M02*
